<svg width="18" height="22" viewBox="0 0 18 22" fill="none" xmlns="http://www.w3.org/2000/svg">
<path d="M8.99985 0C4.53426 0 0.900818 3.63344 0.900818 8.09948C0.900818 9.2644 1.13925 10.3766 1.60913 11.4056C3.63412 15.8367 7.51657 20.5151 8.65852 21.8432C8.70086 21.8923 8.75329 21.9317 8.81223 21.9587C8.87117 21.9857 8.93524 21.9997 9.00007 21.9997C9.06491 21.9997 9.12898 21.9857 9.18792 21.9587C9.24686 21.9317 9.29929 21.8923 9.34162 21.8432C10.4831 20.5153 14.3656 15.8371 16.3912 11.4056C16.8613 10.3766 17.0996 9.2644 17.0996 8.09948C17.0991 3.63344 13.4657 0 8.99985 0ZM8.99985 12.3064C6.68015 12.3064 4.79273 10.419 4.79273 8.09926C4.79273 5.77933 6.68015 3.89191 8.99985 3.89191C11.3196 3.89191 13.207 5.77933 13.207 8.09926C13.2072 10.419 11.3198 12.3064 8.99985 12.3064Z" fill="currentColor"/>
</svg>
