<svg width="24" height="24" viewBox="0 0 24 24" fill="none" xmlns="http://www.w3.org/2000/svg">
<path d="M19 10.0948C19 8.20108 18.2567 6.38944 16.9414 5.05698C15.6268 3.72532 13.8491 2.98109 12 2.98109C10.1509 2.98109 8.37316 3.72532 7.05859 5.05698C5.74331 6.38944 5.00005 8.20108 5 10.0948C5 12.8567 6.77486 15.5447 8.7334 17.6391C9.69355 18.6658 10.6575 19.506 11.3818 20.0903C11.6164 20.2795 11.8257 20.4403 12 20.572C12.1743 20.4403 12.3836 20.2795 12.6182 20.0903C13.3425 19.506 14.3064 18.6658 15.2666 17.6391C17.2251 15.5447 19 12.8567 19 10.0948ZM21 10.0948C21 13.6364 18.7748 16.8026 16.7334 18.9856C15.6938 20.0972 14.6574 21.0007 13.8818 21.6264C13.4932 21.9399 13.1674 22.1856 12.9375 22.3538C12.8228 22.4378 12.7316 22.5026 12.668 22.5473C12.6362 22.5696 12.6113 22.5874 12.5938 22.5995C12.585 22.6056 12.5773 22.6096 12.5723 22.6131C12.5698 22.6148 12.568 22.6169 12.5664 22.6179L12.5645 22.6189L12.5635 22.6198L12 23L11.4365 22.6198L11.4355 22.6189L11.4336 22.6179C11.432 22.6169 11.4302 22.6148 11.4277 22.6131C11.4227 22.6096 11.415 22.6056 11.4062 22.5995C11.3887 22.5874 11.3638 22.5696 11.332 22.5473C11.2684 22.5026 11.1772 22.4378 11.0625 22.3538C10.8326 22.1856 10.5068 21.9399 10.1182 21.6264C9.3426 21.0007 8.30615 20.0972 7.2666 18.9856C5.22515 16.8026 3 13.6364 3 10.0948C3.00005 7.6899 3.94277 5.37899 5.62793 3.67177C7.31394 1.96374 9.60571 1 12 1C14.3943 1 16.6861 1.96374 18.3721 3.67177C20.0572 5.37898 21 7.6899 21 10.0948Z" fill="currentColor" fill-opacity="0.98"/>
<path d="M14 10C14 8.89543 13.1046 8 12 8C10.8954 8 10 8.89543 10 10C10 11.1046 10.8954 12 12 12C13.1046 12 14 11.1046 14 10ZM16 10C16 12.2091 14.2091 14 12 14C9.79086 14 8 12.2091 8 10C8 7.79086 9.79086 6 12 6C14.2091 6 16 7.79086 16 10Z" fill="currentColor" fill-opacity="0.98"/>
</svg>
