<svg width="24" height="24" viewBox="0 0 24 24" fill="none" xmlns="http://www.w3.org/2000/svg">
<path fill-rule="evenodd" clip-rule="evenodd" d="M11 4C14.866 4 18 7.13401 18 11C18 14.866 14.866 18 11 18C7.13401 18 4 14.866 4 11C4 7.13401 7.13401 4 11 4ZM18.0575 16.5855C19.2737 15.0508 20 13.1102 20 11C20 6.02944 15.9706 2 11 2C6.02944 2 2 6.02944 2 11C2 15.9706 6.02944 20 11 20C13.1102 20 15.0508 19.2737 16.5855 18.0575L16 17.472L17.472 16L18.0575 16.5855Z" fill="currentColor" fill-opacity="0.98"/>
<path fill-rule="evenodd" clip-rule="evenodd" d="M20.528 22L22 20.528L18.0575 16.5855C17.6252 17.131 17.131 17.6252 16.5855 18.0575L20.528 22Z" fill="currentColor" fill-opacity="0.98"/>
<path d="M18.0575 16.5855C17.6252 17.131 17.131 17.6252 16.5855 18.0575L16 17.472L17.472 16L18.0575 16.5855Z" fill="currentColor" fill-opacity="0.98"/>
</svg>
