<svg width="18" height="18" viewBox="0 0 18 18" fill="none" xmlns="http://www.w3.org/2000/svg">
<path d="M12.5323 10.7084C13.2667 9.61289 13.6957 8.29464 13.6957 6.87756C13.6957 3.08527 10.6238 0 6.84784 0C3.07192 0 0 3.08527 0 6.87753C0 10.6698 3.07195 13.7551 6.84787 13.7551C8.28668 13.7551 9.62293 13.3067 10.7263 12.5424L16.184 18L18 16.1761L12.5323 10.7084ZM6.84787 11.8234C4.13849 11.8234 1.93416 9.60953 1.93416 6.88837C1.93416 4.16723 4.13845 1.95338 6.84787 1.95338C9.5573 1.95338 11.7616 4.16723 11.7616 6.8884C11.7616 9.60957 9.55726 11.8234 6.84787 11.8234Z" fill="currentColor"/>
</svg>
