<?xml version="1.0" standalone="no"?>
<!DOCTYPE svg PUBLIC "-//W3C//DTD SVG 20010904//EN"
 "http://www.w3.org/TR/2001/REC-SVG-20010904/DTD/svg10.dtd">
<svg version="1.0" xmlns="http://www.w3.org/2000/svg"
 width="60px" height="60px" viewBox="0 0 640.000000 640.000000"
 preserveAspectRatio="xMidYMid meet">

<g transform="translate(0.000000,640.000000) scale(0.100000,-0.100000)"
fill="currentColor" stroke="none">
<path d="M970 3525 c0 -1240 -1 -2258 -2 -2262 -4 -10 1441 -16 1462 -7 8 4
43 6 78 5 34 -2 68 1 75 6 7 5 38 7 70 5 50 -3 59 -7 72 -30 16 -31 215 -231
215 -217 0 5 7 -1 16 -13 8 -12 20 -20 25 -17 5 4 9 2 9 -4 0 -12 150 -116
150 -104 0 4 4 3 8 -3 12 -17 103 -64 113 -58 5 3 9 1 9 -4 0 -10 54 -35 76
-35 8 0 14 -5 14 -10 0 -5 9 -7 20 -4 11 3 20 1 20 -5 0 -5 5 -6 10 -3 6 3 10
-1 10 -11 0 -13 3 -14 14 -5 10 8 16 9 21 1 3 -6 10 -8 15 -5 4 3 10 -2 13 -9
3 -8 14 -15 24 -14 10 0 44 -7 76 -16 31 -9 67 -16 80 -16 47 -1 77 -5 77 -11
0 -7 35 -10 125 -13 28 0 53 -5 57 -11 10 -13 377 -13 386 0 4 6 33 11 64 13
53 3 90 10 233 45 74 18 95 26 95 39 0 5 4 7 9 3 11 -6 81 25 81 37 0 4 6 5
14 2 16 -6 29 1 154 85 46 30 93 68 104 83 11 16 23 26 28 23 5 -3 14 1 22 9
7 8 36 38 63 68 79 82 130 148 180 228 25 41 45 72 46 70 0 -3 2 -34 3 -70 2
-36 5 -67 6 -70 1 -3 1 -35 0 -72 -1 -38 2 -68 7 -68 4 0 9 -37 9 -82 1 -46 2
-120 3 -166 0 -46 5 -81 9 -78 5 3 7 -9 6 -27 l-3 -32 69 -1 c55 0 69 3 72 15
2 9 1 432 -2 941 l-5 925 -615 3 c-338 1 -625 0 -638 -3 -22 -5 -23 -9 -20
-88 l3 -82 548 -3 547 -2 0 -164 c0 -91 3 -172 7 -182 4 -12 3 -15 -6 -9 -10
6 -12 -7 -9 -58 1 -36 -1 -63 -6 -60 -4 3 -7 -18 -5 -46 2 -28 0 -51 -5 -51
-4 0 -6 -11 -4 -25 3 -14 1 -25 -4 -25 -5 0 -8 -12 -7 -28 2 -15 -3 -38 -10
-51 -7 -12 -11 -32 -8 -42 3 -10 1 -19 -3 -19 -8 0 -29 -54 -34 -86 -1 -8 -8
-20 -14 -26 -7 -7 -12 -18 -12 -24 0 -7 -14 -38 -31 -68 -16 -31 -27 -56 -23
-56 4 0 1 -6 -7 -13 -9 -6 -39 -44 -67 -82 -45 -62 -124 -143 -220 -225 -16
-14 -36 -24 -45 -22 -8 2 -18 -6 -22 -18 -3 -11 -11 -18 -16 -15 -5 4 -22 -3
-38 -14 -16 -12 -34 -21 -40 -21 -6 0 -11 -5 -11 -11 0 -5 -4 -7 -10 -4 -5 3
-10 2 -10 -4 0 -6 -7 -8 -15 -5 -8 4 -21 2 -28 -4 -18 -15 -145 -52 -178 -52
-15 0 -34 -6 -41 -13 -7 -8 -20 -12 -30 -9 -10 2 -26 1 -35 -3 -10 -4 -35 -7
-57 -5 -21 1 -36 -2 -33 -7 6 -9 -15 -10 -240 -13 -87 -1 -185 2 -218 8 -62
11 -66 11 -125 15 -19 1 -38 6 -41 10 -3 4 -23 10 -45 13 -71 10 -79 11 -109
24 -16 7 -42 13 -57 14 -16 0 -28 5 -28 9 0 5 -4 5 -10 2 -5 -3 -10 -1 -10 4
0 6 -9 11 -19 11 -11 0 -23 5 -26 11 -4 6 -13 8 -21 5 -8 -3 -14 -1 -14 5 0 6
-4 8 -9 5 -5 -4 -11 -2 -13 3 -1 5 -10 11 -18 13 -8 2 -21 9 -28 16 -8 7 -18
10 -23 7 -5 -4 -9 -2 -9 2 0 11 -55 44 -64 38 -3 -3 -4 -2 -1 1 2 4 -18 21
-45 38 -27 17 -73 50 -102 73 -65 50 -130 110 -103 93 11 -7 5 2 -14 19 -35
31 -36 43 -3 46 9 1 35 10 57 20 22 10 47 19 55 20 29 4 60 16 60 25 0 5 11 7
25 4 14 -2 25 0 25 5 0 6 20 19 45 30 25 11 45 25 45 32 0 7 3 10 6 6 5 -5 30
8 109 57 17 10 39 33 51 50 11 17 25 30 31 29 5 -1 25 14 43 32 19 19 30 35
26 35 -4 0 7 12 24 26 17 15 29 28 26 31 -2 2 7 16 20 30 13 14 21 29 18 34
-3 5 -1 9 5 9 13 0 63 104 91 190 12 36 24 72 27 80 3 8 7 24 9 35 11 79 18
149 18 203 1 34 4 62 9 62 4 0 7 23 7 51 0 27 -3 48 -7 46 -5 -3 -8 23 -9 56
0 56 -5 107 -17 177 -8 44 -56 175 -66 178 -6 2 -8 9 -5 15 5 16 -43 107 -79
146 -15 17 -24 31 -20 31 5 0 -1 7 -11 15 -11 8 -16 15 -12 15 12 0 -28 48
-106 127 -39 40 -74 70 -78 68 -5 -3 -10 2 -13 9 -3 8 -30 30 -59 49 -29 18
-61 42 -71 51 -9 10 -17 15 -17 12 0 -4 -21 5 -47 18 -27 14 -60 30 -75 35
-16 6 -28 15 -28 21 0 6 -4 9 -8 6 -4 -2 -34 4 -66 14 -32 11 -61 19 -64 18
-13 -2 -72 24 -72 32 0 4 22 10 50 14 27 4 56 13 63 21 8 8 17 12 20 8 3 -3
20 2 38 11 17 9 35 13 40 11 4 -3 10 -1 14 5 3 5 28 20 56 31 27 12 49 25 49
30 0 5 3 8 8 8 24 -4 42 3 42 16 0 8 6 15 13 15 18 0 130 82 155 115 11 14 23
25 25 23 2 -2 17 13 33 32 16 19 34 40 41 45 17 15 123 174 123 186 0 5 9 28
20 51 11 22 17 45 13 51 -3 6 -1 7 5 3 12 -7 13 -3 17 44 1 14 7 36 14 48 7
13 11 30 10 40 -1 9 3 30 10 47 7 16 11 41 10 55 -1 14 1 56 6 93 8 76 13 81
88 91 26 4 47 10 47 14 0 4 30 8 67 10 37 2 71 8 75 15 5 8 13 8 30 1 13 -6
52 -8 89 -5 36 4 101 4 145 0 43 -3 91 -2 106 2 16 4 30 3 34 -3 4 -5 17 -8
30 -5 13 2 25 1 26 -4 2 -4 29 -9 60 -11 32 -2 58 -6 58 -9 0 -6 44 -16 93
-21 9 -1 17 -6 17 -11 0 -5 7 -7 15 -3 9 3 15 0 15 -10 0 -11 6 -15 20 -11 11
3 23 1 26 -5 3 -5 12 -7 20 -4 8 3 14 1 14 -5 0 -6 5 -7 10 -4 6 3 10 1 10 -5
0 -6 4 -8 10 -5 6 3 10 2 10 -4 0 -8 69 -37 77 -33 2 1 15 -10 29 -23 15 -14
29 -23 31 -21 2 2 18 -9 34 -24 17 -15 42 -34 56 -41 15 -8 54 -43 87 -78 34
-36 71 -75 82 -87 12 -13 20 -25 18 -27 -3 -3 9 -16 25 -30 16 -13 28 -27 25
-29 -2 -3 7 -17 20 -31 13 -14 21 -28 19 -31 -3 -3 2 -8 11 -12 9 -3 13 -10
10 -15 -3 -5 0 -9 6 -9 6 0 9 -4 5 -9 -3 -6 3 -14 12 -20 10 -6 14 -11 9 -11
-10 0 13 -30 24 -30 4 0 24 17 46 38 21 21 50 45 63 54 27 19 24 50 -9 86 -11
12 -20 23 -19 24 5 8 -43 88 -52 88 -6 0 -8 4 -5 8 2 4 -19 33 -48 65 -29 31
-51 57 -48 57 3 0 -7 13 -23 30 -16 16 -30 28 -32 26 -2 -1 -31 23 -65 55 -35
31 -66 55 -70 53 -5 -3 -8 -1 -8 4 0 21 -215 146 -232 136 -4 -3 -8 -1 -8 4 0
12 -49 34 -60 27 -5 -3 -10 0 -12 6 -6 19 -170 72 -228 73 -19 1 -38 5 -42 11
-4 5 -26 10 -50 11 -24 1 -51 5 -60 9 -10 4 -24 5 -32 2 -8 -3 -16 -1 -18 5
-6 17 -380 17 -385 1 -3 -8 -15 -10 -33 -6 -16 3 -37 2 -47 -2 -10 -4 -34 -9
-53 -11 -68 -6 -120 -16 -120 -23 0 -3 -15 -6 -32 -7 -33 0 -33 0 -36 54 -1
30 -8 64 -14 76 -7 11 -11 24 -11 27 5 15 -49 145 -64 157 -9 6 -14 12 -10 12
23 0 -138 221 -168 233 -4 1 -27 21 -52 44 -25 24 -49 40 -54 37 -5 -3 -9 -1
-9 5 0 11 -60 47 -72 43 -5 -1 -8 3 -8 10 0 6 -3 9 -6 6 -3 -4 -14 2 -25 13
-11 11 -24 17 -29 14 -6 -4 -10 -1 -10 4 0 6 -6 11 -14 11 -7 0 -27 7 -42 15
-16 8 -36 15 -44 15 -9 0 -26 7 -38 16 -12 8 -22 12 -22 8 0 -3 -6 -2 -12 3
-15 12 -73 32 -114 39 -15 3 -31 7 -34 9 -4 2 -20 7 -36 9 -16 3 -40 8 -54 12
-14 3 -45 8 -70 11 -25 3 -47 9 -50 13 -5 8 -96 17 -272 27 -60 3 -108 9 -108
14 0 5 -286 9 -635 9 l-635 0 0 -2255z m1120 2104 c316 -14 490 -33 490 -55 0
-14 27 -24 65 -24 44 0 63 -5 58 -13 -3 -5 5 -7 18 -6 13 2 34 -2 46 -9 12 -7
28 -12 35 -12 7 0 24 -6 38 -13 14 -7 37 -12 53 -12 15 1 27 -2 27 -7 0 -4 18
-13 40 -19 22 -7 40 -17 40 -22 0 -6 3 -8 6 -4 3 3 22 -3 42 -13 19 -11 39
-17 44 -14 4 3 8 1 8 -5 0 -5 17 -20 38 -32 49 -31 54 -35 125 -101 34 -32 65
-58 70 -58 4 0 7 -7 7 -15 0 -9 7 -18 15 -21 8 -4 13 -10 10 -14 -2 -4 6 -19
19 -33 13 -14 22 -28 20 -30 -6 -6 27 -77 35 -77 3 0 7 -10 8 -23 0 -12 7 -35
13 -52 7 -16 14 -37 15 -45 1 -8 5 -39 9 -68 9 -58 -2 -82 -36 -82 -10 0 -21
-7 -24 -15 -4 -8 -10 -13 -14 -10 -13 8 -40 -6 -33 -18 3 -5 1 -7 -5 -3 -6 3
-17 0 -25 -8 -8 -8 -17 -12 -21 -9 -3 4 -6 0 -6 -7 0 -7 -3 -10 -7 -7 -3 4
-12 2 -20 -4 -7 -6 -13 -8 -13 -3 0 5 -4 5 -8 -1 -4 -5 -37 -30 -74 -54 -37
-25 -64 -49 -62 -53 3 -5 1 -7 -4 -6 -31 10 -371 -309 -356 -334 4 -6 2 -8 -3
-5 -9 6 -27 -19 -23 -31 0 -1 -10 -13 -24 -25 -34 -31 -97 -127 -90 -138 3 -5
1 -9 -4 -9 -6 0 -19 -18 -31 -40 -11 -22 -18 -40 -15 -40 2 0 -4 -10 -16 -22
-18 -20 -21 -27 -19 -44 0 -4 -4 -10 -10 -13 -12 -8 -82 -168 -78 -182 1 -6
-18 -12 -43 -13 -25 -2 -81 -6 -125 -10 -44 -4 -91 -7 -105 -7 -348 2 -887 -1
-957 -5 l-93 -7 0 1007 0 1006 368 -1 c202 0 464 -5 582 -10z m1413 -1094 c4
-8 2 -17 -3 -20 -5 -3 -10 -20 -10 -38 -3 -75 -5 -97 -14 -97 -4 0 -6 -6 -3
-14 3 -8 3 -16 -1 -18 -7 -3 -46 -114 -47 -133 0 -5 -3 -12 -7 -15 -3 -3 -8
-12 -10 -20 -2 -8 -8 -19 -15 -25 -7 -5 -13 -16 -15 -24 -2 -8 -14 -27 -26
-42 -13 -15 -25 -31 -25 -36 -3 -11 -137 -133 -147 -133 -5 0 -11 -9 -15 -20
-3 -11 -9 -19 -13 -17 -4 1 -41 -17 -83 -41 -42 -23 -82 -42 -88 -42 -7 0 -9
-5 -5 -12 4 -6 3 -8 -3 -5 -11 7 -76 -12 -113 -32 -14 -8 -34 -16 -45 -17 -23
-3 -82 -18 -107 -29 -22 -9 -22 -2 -3 34 8 16 11 31 8 35 -4 3 -1 6 6 6 7 0 9
5 6 10 -3 6 1 10 9 10 9 0 16 7 16 16 0 8 13 39 30 68 16 30 26 56 23 60 -4 3
-2 6 4 6 12 0 69 81 65 93 -1 4 5 7 13 7 8 0 15 6 15 13 0 7 20 35 45 64 25
28 45 56 45 62 0 6 15 20 33 31 17 11 32 23 31 27 -1 11 205 180 241 197 17 8
40 24 53 36 12 11 22 18 22 16 0 -3 21 8 47 24 52 33 78 38 86 15z m-1163
-1085 c0 -5 10 -10 21 -10 18 0 20 -4 14 -27 -4 -16 -8 -40 -9 -54 -2 -14 -6
-31 -10 -38 -4 -6 -5 -19 -2 -27 3 -9 2 -12 -4 -9 -7 4 -11 -6 -11 -27 1 -61
-4 -103 -12 -109 -4 -3 -9 -33 -10 -67 -1 -34 -5 -62 -9 -62 -7 0 -11 -127
-12 -337 0 -189 5 -323 12 -323 4 0 7 -17 6 -37 -1 -21 1 -42 4 -48 3 -5 5
-22 3 -37 -1 -16 1 -28 6 -28 4 0 9 -30 11 -66 1 -37 8 -76 14 -88 7 -11 11
-29 9 -38 -1 -10 4 -28 10 -40 7 -13 12 -34 10 -47 -2 -14 1 -21 8 -17 6 4 9
1 5 -7 -3 -8 -1 -18 4 -21 6 -3 8 -15 5 -26 -3 -11 -1 -20 4 -20 5 0 9 -10 11
-23 2 -31 73 -202 116 -283 20 -37 34 -69 31 -73 -9 -8 -122 -20 -227 -23 -82
-3 -88 -2 -97 20 -6 12 -15 22 -21 22 -6 0 -8 4 -5 10 7 12 -22 70 -36 70 -6
0 -7 5 -4 10 3 6 1 10 -5 10 -6 0 -9 4 -5 9 6 11 -65 72 -77 65 -4 -3 -8 2 -8
11 0 8 -7 18 -15 21 -8 4 -12 10 -9 15 3 5 0 9 -5 9 -6 0 -10 3 -9 8 1 4 -10
26 -25 49 -15 24 -27 54 -27 68 0 14 -5 25 -11 25 -5 0 -7 5 -4 11 4 6 -1 17
-11 25 -11 9 -13 13 -4 9 8 -4 3 4 -11 18 -24 22 -25 26 -12 51 8 14 11 30 9
35 -3 5 1 14 9 21 8 7 12 16 9 21 -3 5 0 9 5 9 16 0 40 63 29 77 -5 7 -5 14 1
17 5 4 12 2 16 -4 3 -5 17 -9 30 -8 23 2 29 9 23 24 -2 3 5 10 15 15 10 6 17
22 17 39 0 35 -20 81 -31 74 -5 -3 -9 -2 -9 3 0 15 -87 7 -114 -10 -14 -10
-27 -27 -27 -40 -1 -17 -2 -18 -6 -4 -3 10 -10 14 -16 11 -7 -4 -9 -4 -5 1 6
7 -4 23 -52 82 -6 7 -10 14 -9 15 4 7 -13 48 -20 48 -3 0 -7 8 -8 18 -1 9 -3
26 -5 36 -5 21 46 73 99 100 18 9 37 24 42 33 6 10 11 15 11 10 0 -4 25 9 55
29 30 20 52 40 49 45 -3 5 0 9 5 9 13 0 58 89 56 110 -1 8 -3 23 -3 33 -1 11
-10 17 -26 17 -34 0 -43 -20 -19 -40 l20 -16 -23 -29 c-13 -16 -21 -31 -19
-33 6 -7 -33 -33 -88 -61 -48 -25 -69 -24 -44 1 14 13 37 52 37 62 0 14 -35
36 -59 36 -31 0 -50 -18 -76 -70 -25 -51 -75 -90 -75 -59 0 6 -9 9 -20 6 -11
-3 -20 0 -21 6 0 9 -2 9 -5 0 -5 -11 -63 -1 -89 15 -5 4 -12 7 -15 7 -3 1 -20
9 -39 19 -18 10 -42 16 -52 13 -11 -3 -19 0 -19 6 0 6 -3 8 -6 5 -3 -4 -14 2
-25 13 -21 21 -46 24 -69 9 -13 -9 -13 -11 0 -20 8 -5 11 -10 5 -10 -26 0 15
-19 48 -22 20 -1 37 -6 37 -10 0 -5 8 -12 18 -15 9 -4 31 -17 47 -29 19 -15
48 -24 78 -26 26 -2 47 -7 47 -11 0 -5 4 -6 8 -3 15 9 8 -38 -7 -50 -8 -6 -11
-16 -8 -21 4 -6 -1 -14 -11 -18 -11 -4 -24 2 -37 17 -11 13 -40 39 -65 58 -25
19 -48 39 -51 44 -4 5 -14 6 -23 3 -18 -7 -22 -42 -6 -52 6 -4 7 -11 4 -17 -4
-7 -10 -5 -16 6 -5 9 -16 16 -23 16 -8 0 -15 4 -15 10 0 5 -3 9 -7 8 -5 -1
-29 13 -55 31 -25 19 -49 32 -51 30 -3 -2 -17 12 -30 31 -13 19 -29 34 -35 33
-6 -2 -14 7 -17 18 -4 11 -13 18 -20 16 -32 -13 -35 15 -35 360 l0 343 583 3
c320 1 585 3 590 5 4 1 7 -2 7 -8z m365 -36 c8 3 15 0 15 -5 0 -7 11 -9 25 -7
14 3 28 1 31 -4 3 -5 12 -7 20 -4 8 3 14 1 14 -4 0 -6 8 -10 18 -10 10 0 27
-7 38 -15 12 -8 24 -12 26 -10 3 3 22 -2 44 -11 58 -24 78 -32 88 -32 5 0 12
-4 15 -9 10 -14 83 -54 89 -48 3 2 12 -4 19 -15 8 -11 19 -18 24 -15 5 4 9 -1
9 -9 0 -14 5 -17 26 -15 3 0 15 -12 26 -26 11 -14 23 -24 25 -21 3 3 28 -22
55 -55 27 -32 54 -59 59 -59 6 0 8 -4 4 -9 -3 -5 5 -17 17 -25 12 -9 19 -16
16 -16 -4 0 7 -26 23 -57 35 -66 62 -137 79 -203 6 -25 14 -52 17 -60 15 -40
25 -412 11 -404 -7 5 -11 -32 -12 -103 0 -12 -4 -19 -9 -16 -5 3 -7 -3 -6 -13
2 -11 -4 -35 -13 -54 -15 -34 -42 -122 -39 -128 1 -1 -5 -10 -14 -18 -8 -9
-13 -20 -10 -25 4 -5 2 -9 -2 -9 -8 0 -46 -56 -43 -62 4 -9 -125 -131 -180
-170 -91 -64 -251 -144 -264 -131 -2 3 -15 -2 -28 -11 -12 -9 -31 -16 -41 -16
-10 0 -28 -5 -40 -12 -23 -12 -78 -17 -71 -7 2 3 -5 15 -16 26 -10 12 -16 23
-13 27 3 3 -2 8 -11 12 -9 3 -13 10 -10 15 3 5 1 9 -4 9 -5 0 -9 6 -9 13 0 20
-36 97 -46 97 -4 0 -5 5 -2 10 3 6 1 10 -5 10 -6 0 -8 5 -5 10 3 6 2 10 -3 10
-6 0 -8 9 -5 20 3 12 0 20 -8 20 -7 0 -10 2 -7 6 3 3 -5 37 -18 75 -13 39 -24
79 -24 90 0 10 -4 19 -9 19 -5 0 -8 6 -8 13 2 21 -15 97 -21 97 -4 0 -8 10 -8
23 -3 53 -15 167 -24 227 -19 134 -22 189 -20 340 2 85 3 193 4 240 0 47 5 88
11 92 5 4 9 38 10 76 0 39 4 68 8 65 5 -3 8 8 6 23 -1 16 0 38 4 49 4 11 8 36
11 55 2 19 12 54 21 78 10 23 15 51 12 62 -4 16 1 19 42 22 25 2 52 -1 58 -6
7 -4 20 -6 28 -2z m-1476 -760 c5 4 12 -2 16 -13 8 -25 113 -124 124 -117 5 3
12 -1 15 -10 3 -9 11 -14 17 -12 11 4 119 -97 119 -112 0 -6 7 -10 16 -10 8 0
13 -4 9 -9 -3 -6 10 -22 30 -38 25 -20 35 -36 35 -55 0 -16 3 -28 8 -28 4 0 5
-24 4 -54 -2 -29 0 -69 6 -87 5 -19 5 -47 1 -63 -5 -17 -3 -35 4 -47 8 -13 9
-21 0 -30 -11 -11 -6 -49 6 -49 4 0 8 -7 8 -15 0 -8 -3 -15 -7 -15 -4 0 -7
-31 -6 -69 1 -40 -3 -67 -8 -63 -6 3 -6 -3 -1 -14 5 -10 7 -36 6 -57 -1 -20 4
-47 11 -60 7 -12 13 -60 14 -107 l1 -85 -251 3 -251 3 0 624 0 624 32 -20 c18
-11 37 -18 42 -15z m550 -446 c17 -1 39 -10 48 -20 15 -17 15 -21 -3 -60 -10
-23 -19 -45 -19 -48 0 -3 -4 -11 -8 -17 -5 -7 -5 -17 -2 -23 3 -5 1 -10 -4
-10 -7 0 -11 -23 -11 -55 0 -30 4 -55 9 -55 17 0 -6 -76 -32 -102 -14 -14 -28
-23 -31 -20 -3 3 -6 0 -6 -6 0 -7 -9 -12 -21 -12 -16 0 -19 4 -14 20 3 11 2
20 -4 20 -6 0 -6 11 0 32 11 41 11 51 0 43 -5 -3 -3 8 6 25 8 17 12 37 9 45
-3 8 -1 17 4 20 11 7 13 58 3 68 -9 10 -3 125 8 154 7 19 12 23 22 14 7 -6 28
-12 46 -13z m119 -470 c-2 -7 3 -12 10 -10 8 1 11 -1 8 -6 -3 -5 15 -28 39
-52 25 -24 45 -41 45 -38 0 4 27 -20 60 -51 33 -32 63 -55 67 -52 3 3 3 1 0
-5 -4 -6 5 -22 18 -34 51 -48 43 -50 -199 -50 l-224 0 -4 24 c-3 14 -1 31 3
38 12 18 11 112 0 124 -10 10 10 46 26 45 17 -1 43 11 43 20 0 5 3 8 8 7 11
-2 45 14 71 34 28 21 32 22 29 6z"/>
</g>
</svg>
