<svg width="38" height="38" viewBox="0 0 38 38" fill="none" xmlns="http://www.w3.org/2000/svg">
<path d="M5.75997 17.0695C5.75997 24.432 5.75403 30.4763 5.7481 30.5001C5.72435 30.5595 14.304 30.5951 14.4287 30.5416C14.4762 30.5179 14.684 30.506 14.8918 30.512C15.0937 30.5238 15.2956 30.506 15.3372 30.4763C15.3787 30.4466 15.5628 30.4348 15.7528 30.4466C16.0497 30.4645 16.1031 30.4882 16.1803 30.6248C16.2753 30.8088 17.4568 31.9963 17.4568 31.9132C17.4568 31.8835 17.4984 31.9191 17.5518 31.9904C17.5993 32.0616 17.6706 32.1091 17.7003 32.0913C17.73 32.0676 17.7537 32.0795 17.7537 32.1151C17.7537 32.1863 18.6443 32.8038 18.6443 32.7326C18.6443 32.7088 18.6681 32.7148 18.6918 32.7504C18.7631 32.8513 19.3034 33.1304 19.3628 33.0948C19.3925 33.077 19.4162 33.0888 19.4162 33.1185C19.4162 33.1779 19.7368 33.3263 19.8675 33.3263C19.915 33.3263 19.9506 33.356 19.9506 33.3857C19.9506 33.4154 20.004 33.4273 20.0693 33.4095C20.1347 33.3916 20.1881 33.4035 20.1881 33.4391C20.1881 33.4688 20.2178 33.4748 20.2475 33.457C20.2831 33.4391 20.3068 33.4629 20.3068 33.5223C20.3068 33.5995 20.3247 33.6054 20.39 33.552C20.4493 33.5045 20.485 33.4985 20.5147 33.546C20.5325 33.5816 20.574 33.5935 20.6037 33.5757C20.6275 33.5579 20.6631 33.5876 20.6809 33.6291C20.6987 33.6766 20.764 33.7182 20.8234 33.7123C20.8828 33.7123 21.0847 33.7538 21.2747 33.8073C21.4587 33.8607 21.6725 33.9023 21.7497 33.9023C22.0287 33.9082 22.2068 33.932 22.2068 33.9676C22.2068 34.0091 22.4147 34.027 22.949 34.0448C23.1153 34.0448 23.2637 34.0745 23.2875 34.1101C23.3468 34.1873 25.5259 34.1873 25.5793 34.1101C25.6031 34.0745 25.7753 34.0448 25.9593 34.0329C26.274 34.0151 26.4937 33.9735 27.3428 33.7657C27.7822 33.6588 27.9068 33.6113 27.9068 33.5341C27.9068 33.5045 27.9306 33.4926 27.9603 33.5163C28.0256 33.552 28.4412 33.3679 28.4412 33.2966C28.4412 33.2729 28.4768 33.267 28.5243 33.2848C28.6193 33.3204 28.6965 33.2788 29.4387 32.7801C29.7118 32.602 29.9909 32.3763 30.0562 32.2873C30.1215 32.1923 30.1928 32.1329 30.2225 32.1507C30.2522 32.1685 30.3056 32.1448 30.3531 32.0973C30.3947 32.0498 30.5668 31.8716 30.7272 31.6935C31.1962 31.2066 31.499 30.8148 31.7959 30.3398C31.9443 30.0963 32.0631 29.9123 32.069 29.9241C32.069 29.942 32.0809 30.126 32.0868 30.3398C32.0987 30.5535 32.1165 30.7376 32.1225 30.7554C32.1284 30.7732 32.1284 30.9632 32.1225 31.1829C32.1165 31.4085 32.1343 31.5866 32.164 31.5866C32.1878 31.5866 32.2175 31.8063 32.2175 32.0735C32.2234 32.3466 32.2293 32.786 32.2353 33.0591C32.2353 33.3323 32.265 33.5401 32.2887 33.5223C32.3184 33.5045 32.3303 33.5757 32.3243 33.6826L32.3065 33.8726L32.7162 33.8785C33.0428 33.8785 33.1259 33.8607 33.1437 33.7895C33.1556 33.736 33.1497 31.2245 33.1318 28.2023L33.1022 22.7101L29.4506 22.6923C27.4437 22.6863 25.7397 22.6923 25.6625 22.7101C25.5318 22.7398 25.5259 22.7635 25.5437 23.2326L25.5615 23.7195L28.8153 23.7373L32.0631 23.7491V24.7229C32.0631 25.2632 32.0809 25.7441 32.1047 25.8035C32.1284 25.8748 32.1225 25.8926 32.069 25.857C32.0097 25.8213 31.9978 25.8985 32.0156 26.2013C32.0215 26.4151 32.0097 26.5754 31.98 26.5576C31.9562 26.5398 31.9384 26.6645 31.9503 26.8307C31.9622 26.997 31.9503 27.1335 31.9206 27.1335C31.8969 27.1335 31.885 27.1988 31.8968 27.282C31.9147 27.3651 31.9028 27.4304 31.8731 27.4304C31.8434 27.4304 31.8256 27.5016 31.8315 27.5966C31.8434 27.6857 31.8137 27.8223 31.7722 27.8995C31.7306 27.9707 31.7068 28.0895 31.7247 28.1488C31.7425 28.2082 31.7306 28.2616 31.7068 28.2616C31.6593 28.2616 31.5347 28.5823 31.505 28.7723C31.499 28.8198 31.4575 28.891 31.4218 28.9266C31.3803 28.9682 31.3506 29.0335 31.3506 29.0691C31.3506 29.1107 31.2675 29.2948 31.1665 29.4729C31.0715 29.657 31.0062 29.8054 31.03 29.8054C31.0537 29.8054 31.0359 29.841 30.9884 29.8826C30.935 29.9182 30.7568 30.1438 30.5906 30.3695C30.3234 30.7376 29.8543 31.2185 29.2843 31.7054C29.1893 31.7885 29.0706 31.8479 29.0172 31.836C28.9697 31.8241 28.9103 31.8716 28.8865 31.9429C28.8687 32.0082 28.8212 32.0498 28.7915 32.032C28.7618 32.0082 28.6609 32.0498 28.5659 32.1151C28.4709 32.1863 28.364 32.2398 28.3284 32.2398C28.2928 32.2398 28.2631 32.2695 28.2631 32.3051C28.2631 32.3348 28.2393 32.3466 28.2037 32.3288C28.174 32.311 28.1443 32.317 28.1443 32.3526C28.1443 32.3882 28.1028 32.4001 28.0553 32.3823C28.0078 32.3585 27.9306 32.3704 27.889 32.406C27.7822 32.4951 27.0281 32.7148 26.8322 32.7148C26.7431 32.7148 26.6303 32.7504 26.5887 32.792C26.5472 32.8395 26.47 32.8632 26.4106 32.8454C26.3512 32.8335 26.2562 32.8395 26.2028 32.8632C26.1434 32.887 25.995 32.9048 25.8643 32.8929C25.7397 32.887 25.6506 32.9048 25.6684 32.9345C25.704 32.9879 25.5793 32.9938 24.2434 33.0116C23.7268 33.0176 23.145 32.9998 22.949 32.9641C22.5809 32.8988 22.5572 32.8988 22.2068 32.8751C22.094 32.8691 21.9812 32.8395 21.9634 32.8157C21.9456 32.792 21.8268 32.7563 21.6962 32.7385C21.2747 32.6791 21.2272 32.6732 21.049 32.596C20.954 32.5545 20.7997 32.5188 20.7106 32.5129C20.6156 32.5129 20.5443 32.4832 20.5443 32.4595C20.5443 32.4298 20.5206 32.4298 20.485 32.4476C20.4553 32.4654 20.4256 32.4535 20.4256 32.4238C20.4256 32.3882 20.3722 32.3585 20.3128 32.3585C20.2475 32.3585 20.1762 32.3288 20.1584 32.2932C20.1347 32.2576 20.0812 32.2457 20.0337 32.2635C19.9862 32.2813 19.9506 32.2695 19.9506 32.2338C19.9506 32.1982 19.9268 32.1863 19.8972 32.2041C19.8675 32.2279 19.8318 32.216 19.82 32.1863C19.814 32.1566 19.7606 32.121 19.7131 32.1091C19.6656 32.0973 19.5884 32.0557 19.5468 32.0141C19.4993 31.9726 19.44 31.9548 19.4103 31.9726C19.3806 31.9963 19.3568 31.9845 19.3568 31.9607C19.3568 31.8954 19.0303 31.6995 18.9768 31.7351C18.959 31.7529 18.9531 31.747 18.9709 31.7291C18.9828 31.7054 18.864 31.6045 18.7037 31.5035C18.5434 31.4026 18.2703 31.2066 18.0981 31.0701C17.7122 30.7732 17.3262 30.417 17.4865 30.5179C17.5518 30.5595 17.5162 30.506 17.4034 30.4051C17.1956 30.221 17.1897 30.1498 17.3856 30.132C17.439 30.126 17.5934 30.0726 17.724 30.0132C17.8547 29.9538 18.0031 29.9004 18.0506 29.8945C18.2228 29.8707 18.4068 29.7995 18.4068 29.746C18.4068 29.7163 18.4722 29.7045 18.5553 29.7223C18.6384 29.7341 18.7037 29.7223 18.7037 29.6926C18.7037 29.657 18.8225 29.5798 18.9709 29.5145C19.1193 29.4491 19.2381 29.366 19.2381 29.3245C19.2381 29.2829 19.2559 29.2651 19.2737 29.2888C19.3034 29.3185 19.4518 29.2413 19.9209 28.9504C20.0218 28.891 20.1525 28.7545 20.2237 28.6535C20.289 28.5526 20.3722 28.4754 20.4078 28.4813C20.4375 28.4873 20.5562 28.3982 20.6631 28.2913C20.7759 28.1785 20.8412 28.0835 20.8175 28.0835C20.7937 28.0835 20.859 28.0123 20.96 27.9291C21.0609 27.8401 21.1322 27.7629 21.1143 27.7451C21.1025 27.7332 21.1559 27.6501 21.2331 27.567C21.3103 27.4838 21.3578 27.3948 21.34 27.3651C21.3222 27.3354 21.334 27.3116 21.3697 27.3116C21.4468 27.3116 21.7437 26.6941 21.91 26.1835C21.9812 25.9698 22.0525 25.756 22.0703 25.7085C22.0881 25.661 22.1118 25.566 22.1237 25.5007C22.189 25.0316 22.2306 24.616 22.2306 24.2954C22.2365 24.0935 22.2543 23.9273 22.284 23.9273C22.3078 23.9273 22.3256 23.7907 22.3256 23.6245C22.3256 23.4641 22.3078 23.3395 22.284 23.3513C22.2543 23.3691 22.2365 23.2148 22.2306 23.0188C22.2306 22.6863 22.2009 22.3835 22.1297 21.9679C22.0822 21.7066 21.7972 20.9288 21.7378 20.911C21.7022 20.8991 21.6903 20.8576 21.7081 20.822C21.7378 20.727 21.4528 20.1866 21.239 19.9551C21.15 19.8541 21.0965 19.771 21.1203 19.771C21.15 19.771 21.1143 19.7295 21.055 19.682C20.9897 19.6345 20.96 19.5929 20.9837 19.5929C21.055 19.5929 20.8175 19.3079 20.3543 18.8388C20.1228 18.6013 19.915 18.4232 19.8912 18.4351C19.8615 18.4529 19.8318 18.4232 19.814 18.3816C19.7962 18.3341 19.6359 18.2035 19.4637 18.0907C19.2915 17.9838 19.1015 17.8413 19.0422 17.7879C18.9887 17.7285 18.9412 17.6988 18.9412 17.7166C18.9412 17.7404 18.8165 17.687 18.6622 17.6098C18.5018 17.5266 18.3059 17.4316 18.2168 17.402C18.1218 17.3663 18.0506 17.3129 18.0506 17.2773C18.0506 17.2416 18.0268 17.2238 18.0031 17.2416C17.9793 17.2535 17.8012 17.2179 17.6112 17.1585C17.4212 17.0932 17.249 17.0457 17.2312 17.0516C17.154 17.0635 16.8037 16.9091 16.8037 16.8616C16.8037 16.8379 16.9343 16.8023 17.1006 16.7785C17.2609 16.7548 17.4331 16.7013 17.4747 16.6538C17.5222 16.6063 17.5756 16.5826 17.5934 16.6063C17.6112 16.6241 17.7122 16.5945 17.819 16.541C17.92 16.4876 18.0268 16.4638 18.0565 16.4757C18.0803 16.4935 18.1159 16.4816 18.1397 16.446C18.1575 16.4163 18.3059 16.3273 18.4722 16.262C18.6325 16.1907 18.7631 16.1135 18.7631 16.0838C18.7631 16.0541 18.7809 16.0363 18.8106 16.0363C18.9531 16.0601 19.06 16.0185 19.06 15.9413C19.06 15.8938 19.0956 15.8523 19.1372 15.8523C19.244 15.8523 19.909 15.3654 20.0575 15.1695C20.1228 15.0863 20.194 15.021 20.2059 15.0329C20.2178 15.0448 20.3068 14.9557 20.4018 14.8429C20.4968 14.7301 20.6037 14.6054 20.6453 14.5757C20.7462 14.4866 21.3756 13.5426 21.3756 13.4713C21.3756 13.4416 21.429 13.3051 21.4943 13.1685C21.5597 13.0379 21.5953 12.9013 21.5715 12.8657C21.5537 12.8301 21.5656 12.8241 21.6012 12.8479C21.6725 12.8895 21.6784 12.8657 21.7022 12.5866C21.7081 12.5035 21.7437 12.3729 21.7853 12.3016C21.8268 12.2245 21.8506 12.1235 21.8447 12.0641C21.8387 12.0107 21.8625 11.886 21.904 11.7851C21.9456 11.6901 21.9693 11.5416 21.9634 11.4585C21.9575 11.3754 21.9693 11.126 21.999 10.9063C22.0465 10.4551 22.0762 10.4254 22.5215 10.366C22.6759 10.3423 22.8006 10.3066 22.8006 10.2829C22.8006 10.2591 22.9787 10.2354 23.1984 10.2235C23.4181 10.2116 23.62 10.176 23.6437 10.1345C23.6734 10.087 23.7209 10.087 23.8218 10.1285C23.899 10.1641 24.1306 10.176 24.3503 10.1582C24.564 10.1345 24.95 10.1345 25.2112 10.1582C25.4665 10.176 25.7515 10.1701 25.8406 10.1463C25.9356 10.1226 26.0187 10.1285 26.0425 10.1641C26.0662 10.1938 26.1434 10.2116 26.2206 10.1938C26.2978 10.182 26.369 10.1879 26.375 10.2176C26.3868 10.2413 26.5472 10.271 26.7312 10.2829C26.9212 10.2948 27.0756 10.3185 27.0756 10.3363C27.0756 10.372 27.3368 10.4313 27.6278 10.461C27.6812 10.467 27.7287 10.4966 27.7287 10.5263C27.7287 10.556 27.7703 10.5679 27.8178 10.5441C27.8712 10.5263 27.9068 10.5441 27.9068 10.6035C27.9068 10.6688 27.9425 10.6926 28.0256 10.6688C28.0909 10.651 28.1622 10.6629 28.18 10.6985C28.1978 10.7282 28.2512 10.7401 28.2987 10.7223C28.3462 10.7045 28.3818 10.7163 28.3818 10.752C28.3818 10.7876 28.4115 10.7935 28.4412 10.7757C28.4768 10.7579 28.5006 10.7698 28.5006 10.8054C28.5006 10.841 28.5243 10.8529 28.56 10.8351C28.5956 10.8173 28.6193 10.8232 28.6193 10.8588C28.6193 10.9063 29.029 11.0785 29.0765 11.0548C29.0884 11.0488 29.1656 11.1141 29.2487 11.1913C29.3378 11.2745 29.4209 11.3279 29.4328 11.316C29.4447 11.3041 29.5397 11.3695 29.6347 11.4585C29.7356 11.5476 29.884 11.6604 29.9672 11.702C30.0562 11.7495 30.2878 11.9573 30.4837 12.1651C30.6856 12.3788 30.9053 12.6104 30.9706 12.6816C31.0419 12.7588 31.0893 12.8301 31.0775 12.842C31.0597 12.8598 31.1309 12.937 31.2259 13.0201C31.3209 13.0973 31.3922 13.1804 31.3743 13.1923C31.3625 13.2101 31.4159 13.2932 31.4931 13.3763C31.5703 13.4595 31.6178 13.5426 31.6059 13.5604C31.5881 13.5782 31.6178 13.6079 31.6712 13.6316C31.7247 13.6495 31.7484 13.691 31.7306 13.7207C31.7128 13.7504 31.7306 13.7741 31.7662 13.7741C31.8018 13.7741 31.8197 13.7979 31.7959 13.8276C31.7781 13.8632 31.8137 13.9107 31.8672 13.9463C31.9265 13.982 31.9503 14.0116 31.9206 14.0116C31.8612 14.0116 31.9978 14.1898 32.0631 14.1898C32.0868 14.1898 32.2056 14.0888 32.3362 13.9641C32.4609 13.8395 32.6331 13.697 32.7103 13.6435C32.8706 13.5307 32.8528 13.3466 32.6568 13.1329C32.5915 13.0616 32.5381 12.9963 32.544 12.9904C32.5737 12.9429 32.2887 12.4679 32.2353 12.4679C32.1997 12.4679 32.1878 12.4441 32.2056 12.4204C32.2175 12.3966 32.0928 12.2245 31.9206 12.0345C31.7484 11.8504 31.6178 11.696 31.6356 11.696C31.6534 11.696 31.594 11.6188 31.499 11.5179C31.404 11.4229 31.3209 11.3516 31.309 11.3635C31.2972 11.3695 31.125 11.227 30.9231 11.037C30.7153 10.8529 30.5312 10.7104 30.5075 10.7223C30.4778 10.7401 30.46 10.7282 30.46 10.6985C30.46 10.5738 29.1834 9.83164 29.0825 9.89102C29.0587 9.90883 29.035 9.89695 29.035 9.86727C29.035 9.79602 28.744 9.66539 28.6787 9.70695C28.649 9.72477 28.6193 9.70695 28.6075 9.67133C28.5718 9.55852 27.5981 9.24383 27.2537 9.23789C27.1409 9.23196 27.0281 9.2082 27.0043 9.17258C26.9806 9.14289 26.85 9.1132 26.7075 9.10727C26.565 9.10133 26.4047 9.07758 26.3512 9.05383C26.2918 9.03008 26.2087 9.02414 26.1612 9.04196C26.1137 9.05977 26.0662 9.04789 26.0543 9.01227C26.0187 8.91133 23.7981 8.91133 23.7684 9.00633C23.7506 9.05383 23.6793 9.06571 23.5725 9.04196C23.4775 9.02414 23.3528 9.03008 23.2934 9.05383C23.234 9.07758 23.0915 9.10727 22.9787 9.11914C22.575 9.15477 22.2662 9.21414 22.2662 9.2557C22.2662 9.27352 22.1772 9.29133 22.0762 9.29727C21.8803 9.29727 21.8803 9.29727 21.8625 8.97664C21.8565 8.79852 21.815 8.59664 21.7793 8.52539C21.7378 8.46008 21.714 8.38289 21.714 8.36508C21.7437 8.27602 21.4231 7.50414 21.334 7.43289C21.2806 7.39727 21.2509 7.36164 21.2747 7.36164C21.4112 7.36164 20.4553 6.04945 20.2772 5.9782C20.2534 5.97227 20.1168 5.85352 19.9684 5.71696C19.82 5.57446 19.6775 5.47946 19.6478 5.49727C19.6181 5.51508 19.5943 5.50321 19.5943 5.46758C19.5943 5.40227 19.2381 5.18852 19.1668 5.21227C19.1372 5.21821 19.1193 5.19446 19.1193 5.15289C19.1193 5.11727 19.1015 5.09945 19.0837 5.11727C19.0659 5.14102 19.0006 5.10539 18.9353 5.04008C18.87 4.97477 18.7928 4.93914 18.7631 4.95695C18.7275 4.9807 18.7037 4.96289 18.7037 4.93321C18.7037 4.89758 18.6681 4.86789 18.6206 4.86789C18.579 4.86789 18.4603 4.82633 18.3712 4.77883C18.2762 4.73133 18.1575 4.68977 18.11 4.68977C18.0565 4.68977 17.9556 4.64821 17.8843 4.59477C17.8131 4.54727 17.7537 4.52352 17.7537 4.54727C17.7537 4.56508 17.7181 4.55914 17.6825 4.52946C17.5934 4.45821 17.249 4.33946 17.0056 4.29789C16.9165 4.28008 16.8215 4.25633 16.8037 4.24445C16.78 4.23258 16.685 4.20289 16.59 4.19102C16.495 4.17321 16.3525 4.14352 16.2693 4.11977C16.1862 4.10196 16.0022 4.07227 15.8537 4.05446C15.7053 4.03664 15.5747 4.00102 15.5568 3.97727C15.5272 3.92977 14.9868 3.87633 13.9418 3.81696C13.5856 3.79914 13.3006 3.76352 13.3006 3.73383C13.3006 3.70414 11.6025 3.68039 9.53028 3.68039H5.75997V17.0695ZM12.41 4.57696C14.2862 4.66008 15.3193 4.77289 15.3193 4.90352C15.3193 4.98664 15.4797 5.04602 15.7053 5.04602C15.9665 5.04602 16.0793 5.07571 16.0497 5.12321C16.0318 5.15289 16.0793 5.16477 16.1565 5.15883C16.2337 5.14696 16.3584 5.17071 16.4297 5.21227C16.5009 5.25383 16.5959 5.28352 16.6375 5.28352C16.679 5.28352 16.78 5.31914 16.8631 5.36071C16.9462 5.40227 17.0828 5.43195 17.1778 5.43195C17.2668 5.42602 17.3381 5.44383 17.3381 5.47352C17.3381 5.49727 17.445 5.55071 17.5756 5.58633C17.7062 5.62789 17.8131 5.68727 17.8131 5.71696C17.8131 5.75258 17.8309 5.76445 17.8487 5.7407C17.8665 5.72289 17.9793 5.75852 18.0981 5.81789C18.2109 5.8832 18.3297 5.91883 18.3593 5.90102C18.3831 5.8832 18.4068 5.89508 18.4068 5.9307C18.4068 5.96039 18.5078 6.04946 18.6325 6.12071C18.9234 6.30477 18.9531 6.32852 19.3747 6.72039C19.5765 6.91039 19.7606 7.06477 19.7903 7.06477C19.814 7.06477 19.8318 7.10633 19.8318 7.15383C19.8318 7.20727 19.8734 7.26071 19.9209 7.27852C19.9684 7.30227 19.9981 7.33789 19.9803 7.36164C19.9684 7.38539 20.0159 7.47446 20.0931 7.55758C20.1703 7.64071 20.2237 7.72383 20.2118 7.73571C20.1762 7.77133 20.3722 8.19289 20.4197 8.19289C20.4375 8.19289 20.4612 8.25227 20.4672 8.32946C20.4672 8.40071 20.5087 8.53727 20.5443 8.6382C20.5859 8.7332 20.6275 8.85789 20.6334 8.90539C20.6393 8.95289 20.6631 9.13696 20.6868 9.30914C20.7403 9.65352 20.675 9.79602 20.4731 9.79602C20.4137 9.79602 20.3484 9.83758 20.3306 9.88508C20.3068 9.93258 20.2712 9.96227 20.2475 9.94445C20.1703 9.89695 20.01 9.98008 20.0515 10.0513C20.0693 10.081 20.0575 10.0929 20.0218 10.0691C19.9862 10.0513 19.9209 10.0691 19.8734 10.1166C19.8259 10.1641 19.7725 10.1879 19.7487 10.1701C19.7309 10.1463 19.7131 10.1701 19.7131 10.2116C19.7131 10.2532 19.6953 10.271 19.6715 10.2532C19.6537 10.2295 19.6003 10.2413 19.5528 10.277C19.5112 10.3126 19.4756 10.3245 19.4756 10.2948C19.4756 10.2651 19.4518 10.2651 19.4281 10.3007C19.4043 10.3304 19.2084 10.4788 18.9887 10.6213C18.769 10.7698 18.6087 10.9123 18.6206 10.936C18.6384 10.9657 18.6265 10.9776 18.5968 10.9716C18.4128 10.9123 16.394 12.8063 16.4831 12.9548C16.5068 12.9904 16.495 13.0023 16.4653 12.9845C16.4118 12.9488 16.305 13.0973 16.3287 13.1685C16.3287 13.1745 16.2693 13.2457 16.1862 13.317C15.9843 13.501 15.6103 14.071 15.6518 14.1363C15.6697 14.166 15.6578 14.1898 15.6281 14.1898C15.5925 14.1898 15.5153 14.2966 15.444 14.4273C15.3787 14.5579 15.3372 14.6648 15.355 14.6648C15.3668 14.6648 15.3312 14.7241 15.26 14.7954C15.1531 14.9141 15.1353 14.9557 15.1472 15.0566C15.1472 15.0804 15.1234 15.116 15.0878 15.1338C15.0165 15.1813 14.6009 16.1313 14.6247 16.2145C14.6306 16.2501 14.5178 16.2857 14.3693 16.2916C14.2209 16.3035 13.8884 16.3273 13.6272 16.351C13.3659 16.3748 13.0868 16.3926 13.0037 16.3926C10.9375 16.3807 7.73716 16.3985 7.32153 16.4223L6.76935 16.4638V10.4848V4.51164L8.95435 4.51758C10.1537 4.51758 11.7093 4.54727 12.41 4.57696ZM20.7997 11.0726C20.8234 11.1201 20.8115 11.1735 20.7818 11.1913C20.7522 11.2091 20.7225 11.3101 20.7225 11.417C20.7047 11.8623 20.6928 11.9929 20.6393 11.9929C20.6156 11.9929 20.6037 12.0285 20.6215 12.076C20.6393 12.1235 20.6393 12.171 20.6156 12.1829C20.574 12.2007 20.3425 12.8598 20.3365 12.9726C20.3365 13.0023 20.3187 13.0438 20.295 13.0616C20.2772 13.0795 20.2475 13.1329 20.2356 13.1804C20.2237 13.2279 20.1881 13.2932 20.1465 13.3288C20.105 13.3585 20.0693 13.4238 20.0575 13.4713C20.0456 13.5188 19.9743 13.6316 19.9031 13.7207C19.8259 13.8098 19.7547 13.9048 19.7547 13.9345C19.7368 13.9998 18.9412 14.7241 18.8818 14.7241C18.8522 14.7241 18.8165 14.7776 18.7928 14.8429C18.775 14.9082 18.7393 14.9557 18.7156 14.9438C18.6918 14.9379 18.4722 15.0448 18.2228 15.1873C17.9734 15.3238 17.7359 15.4366 17.7003 15.4366C17.6587 15.4366 17.6468 15.4663 17.6706 15.5079C17.6943 15.5435 17.6884 15.5554 17.6528 15.5376C17.5875 15.496 17.2015 15.6088 16.9818 15.7276C16.8987 15.7751 16.78 15.8226 16.7147 15.8285C16.5781 15.8463 16.2278 15.9354 16.0793 16.0007C15.9487 16.0541 15.9487 16.0126 16.0615 15.7988C16.109 15.7038 16.1268 15.6148 16.109 15.591C16.0853 15.5732 16.1031 15.5554 16.1447 15.5554C16.1862 15.5554 16.1981 15.5257 16.1803 15.496C16.1625 15.4604 16.1862 15.4366 16.2337 15.4366C16.2872 15.4366 16.3287 15.3951 16.3287 15.3416C16.3287 15.2941 16.4059 15.1101 16.5068 14.9379C16.6018 14.7598 16.6612 14.6054 16.6434 14.5816C16.6197 14.5638 16.6315 14.546 16.6672 14.546C16.7384 14.546 17.0768 14.0651 17.0531 13.9938C17.0472 13.9701 17.0828 13.9523 17.1303 13.9523C17.1778 13.9523 17.2193 13.9166 17.2193 13.8751C17.2193 13.8335 17.3381 13.6673 17.4865 13.4951C17.635 13.3288 17.7537 13.1626 17.7537 13.127C17.7537 13.0913 17.8428 13.0082 17.9497 12.9429C18.0506 12.8776 18.1397 12.8063 18.1337 12.7826C18.1278 12.7173 19.3509 11.7138 19.5647 11.6129C19.6656 11.5654 19.8022 11.4704 19.8793 11.3991C19.9506 11.3338 20.01 11.2923 20.01 11.3041C20.01 11.322 20.1347 11.2566 20.289 11.1616C20.5978 10.9657 20.7522 10.936 20.7997 11.0726ZM13.8943 17.5148C13.8943 17.5445 13.9537 17.5741 14.019 17.5741C14.1259 17.5741 14.1378 17.5979 14.1022 17.7345C14.0784 17.8295 14.0547 17.972 14.0487 18.0551C14.0368 18.1382 14.0131 18.2391 13.9893 18.2807C13.9656 18.3163 13.9597 18.3935 13.9775 18.441C13.9953 18.4945 13.9893 18.5123 13.9537 18.4945C13.9122 18.4707 13.8884 18.5301 13.8884 18.6548C13.8943 19.017 13.8647 19.2663 13.8172 19.302C13.7934 19.3198 13.7637 19.4979 13.7578 19.6998C13.7518 19.9016 13.7281 20.0679 13.7043 20.0679C13.6628 20.0679 13.639 20.822 13.6331 22.0688C13.6331 23.191 13.6628 23.9866 13.7043 23.9866C13.7281 23.9866 13.7459 24.0876 13.74 24.2063C13.734 24.331 13.7459 24.4557 13.7637 24.4913C13.7815 24.521 13.7934 24.622 13.7815 24.711C13.7756 24.806 13.7875 24.8773 13.8172 24.8773C13.8409 24.8773 13.8706 25.0554 13.8825 25.2691C13.8884 25.4888 13.93 25.7204 13.9656 25.7916C14.0072 25.857 14.0309 25.9638 14.019 26.0173C14.0131 26.0766 14.0428 26.1835 14.0784 26.2548C14.12 26.332 14.1497 26.4566 14.1378 26.5338C14.1259 26.617 14.1437 26.6585 14.1853 26.6348C14.2209 26.611 14.2387 26.6288 14.215 26.6763C14.1972 26.7238 14.209 26.7832 14.2387 26.801C14.2743 26.8188 14.2862 26.8901 14.2684 26.9554C14.2506 27.0207 14.2625 27.0741 14.2922 27.0741C14.3218 27.0741 14.3456 27.1335 14.3575 27.2107C14.3693 27.3948 14.7909 28.4101 15.0462 28.891C15.165 29.1107 15.2481 29.3007 15.2303 29.3245C15.1768 29.372 14.5059 29.4432 13.8825 29.461C13.3956 29.4788 13.36 29.4729 13.3065 29.3423C13.2709 29.271 13.2175 29.2116 13.1818 29.2116C13.1462 29.2116 13.1343 29.1879 13.1522 29.1523C13.1937 29.081 13.0215 28.7366 12.9384 28.7366C12.9028 28.7366 12.8968 28.707 12.9147 28.6773C12.9325 28.6416 12.9206 28.6179 12.885 28.6179C12.8493 28.6179 12.8315 28.5941 12.8553 28.5645C12.8909 28.4991 12.4693 28.137 12.3981 28.1785C12.3743 28.1963 12.3506 28.1666 12.3506 28.1132C12.3506 28.0657 12.309 28.0063 12.2615 27.9885C12.214 27.9648 12.1903 27.9291 12.2081 27.8995C12.2259 27.8698 12.2081 27.846 12.1784 27.846C12.1428 27.846 12.119 27.8282 12.125 27.7985C12.1309 27.7748 12.0656 27.6441 11.9765 27.5076C11.8875 27.3651 11.8162 27.187 11.8162 27.1038C11.8162 27.0207 11.7865 26.9554 11.7509 26.9554C11.7212 26.9554 11.7093 26.9257 11.7272 26.8901C11.7509 26.8545 11.7212 26.7891 11.6618 26.7416C11.5965 26.6882 11.5847 26.6645 11.6381 26.6882C11.6856 26.712 11.6559 26.6645 11.5728 26.5813C11.4303 26.4507 11.4243 26.427 11.5015 26.2785C11.549 26.1954 11.5668 26.1004 11.555 26.0707C11.5372 26.041 11.5609 25.9876 11.6084 25.946C11.6559 25.9045 11.6797 25.851 11.6618 25.8213C11.644 25.7916 11.6618 25.7679 11.6915 25.7679C11.7865 25.7679 11.929 25.3938 11.8637 25.3107C11.834 25.2691 11.834 25.2276 11.8697 25.2098C11.8993 25.186 11.9409 25.1979 11.9647 25.2335C11.9825 25.2632 12.0656 25.287 12.1428 25.281C12.2793 25.2691 12.315 25.2276 12.2793 25.1385C12.2675 25.1207 12.309 25.0791 12.3684 25.0495C12.4278 25.0138 12.4693 24.9188 12.4693 24.8179C12.4693 24.6101 12.3506 24.337 12.2853 24.3785C12.2556 24.3963 12.2318 24.3904 12.2318 24.3607C12.2318 24.2716 11.7153 24.3191 11.555 24.4201C11.4718 24.4795 11.3947 24.5804 11.3947 24.6576C11.3887 24.7585 11.3828 24.7645 11.359 24.6813C11.3412 24.622 11.2997 24.5982 11.264 24.616C11.2225 24.6398 11.2106 24.6398 11.2343 24.6101C11.27 24.5685 11.2106 24.4735 10.9256 24.1232C10.89 24.0816 10.8662 24.0401 10.8722 24.0341C10.8959 23.9926 10.795 23.7491 10.7534 23.7491C10.7356 23.7491 10.7118 23.7016 10.7059 23.6423C10.7 23.5888 10.6881 23.4879 10.6762 23.4285C10.6465 23.3038 10.9493 22.9951 11.264 22.8348C11.3709 22.7813 11.4837 22.6923 11.5134 22.6388C11.549 22.5795 11.5787 22.5498 11.5787 22.5795C11.5787 22.6032 11.7272 22.526 11.9053 22.4073C12.0834 22.2885 12.214 22.1698 12.1962 22.1401C12.1784 22.1104 12.1962 22.0866 12.2259 22.0866C12.3031 22.0866 12.5703 21.5582 12.5584 21.4335C12.5525 21.386 12.5406 21.297 12.5406 21.2376C12.5347 21.1723 12.4812 21.1366 12.3862 21.1366C12.1843 21.1366 12.1309 21.2554 12.2734 21.3741L12.3922 21.4691L12.2556 21.6413C12.1784 21.7363 12.1309 21.8254 12.1428 21.8373C12.1784 21.8788 11.9468 22.0332 11.6203 22.1995C11.3353 22.3479 11.2106 22.342 11.359 22.1935C11.4422 22.1163 11.5787 21.8848 11.5787 21.8254C11.5787 21.7423 11.3709 21.6116 11.2284 21.6116C11.0443 21.6116 10.9315 21.7185 10.7772 22.0273C10.6287 22.3301 10.3318 22.5616 10.3318 22.3776C10.3318 22.342 10.2784 22.3241 10.2131 22.342C10.1478 22.3598 10.0943 22.342 10.0884 22.3063C10.0884 22.2529 10.0765 22.2529 10.0587 22.3063C10.029 22.3716 9.68466 22.3123 9.53028 22.2173C9.5006 22.1935 9.45903 22.1757 9.44122 22.1757C9.42341 22.1698 9.32247 22.1223 9.20966 22.0629C9.10278 22.0035 8.96028 21.9679 8.90091 21.9857C8.8356 22.0035 8.7881 21.9857 8.7881 21.9501C8.7881 21.9145 8.77028 21.9026 8.75247 21.9204C8.73466 21.9441 8.66935 21.9085 8.60403 21.8432C8.47935 21.7185 8.33091 21.7007 8.19435 21.7898C8.11716 21.8432 8.11716 21.8551 8.19435 21.9085C8.24185 21.9382 8.25966 21.9679 8.22403 21.9679C8.06966 21.9679 8.3131 22.0807 8.50903 22.0985C8.62778 22.1045 8.72872 22.1341 8.72872 22.1579C8.72872 22.1876 8.77622 22.2291 8.8356 22.247C8.88903 22.2707 9.01966 22.3479 9.11466 22.4191C9.22747 22.5082 9.39966 22.5616 9.57778 22.5735C9.73216 22.5854 9.85685 22.6151 9.85685 22.6388C9.85685 22.6685 9.8806 22.6745 9.90435 22.6566C9.99341 22.6032 9.95185 22.8823 9.86278 22.9535C9.81528 22.9891 9.79747 23.0485 9.81528 23.0782C9.83903 23.1138 9.80935 23.1613 9.74997 23.1851C9.68466 23.2088 9.60747 23.1732 9.53028 23.0841C9.46497 23.007 9.29278 22.8526 9.14435 22.7398C8.99591 22.627 8.85935 22.5082 8.84153 22.4785C8.81778 22.4488 8.75841 22.4429 8.70497 22.4607C8.5981 22.5023 8.57435 22.7101 8.66935 22.7695C8.70497 22.7932 8.71091 22.8348 8.6931 22.8704C8.66935 22.912 8.63372 22.9001 8.5981 22.8348C8.56841 22.7813 8.5031 22.7398 8.46153 22.7398C8.41403 22.7398 8.37247 22.716 8.37247 22.6804C8.37247 22.6507 8.35466 22.627 8.33091 22.6329C8.30122 22.6388 8.15872 22.5557 8.00435 22.4488C7.85591 22.336 7.71341 22.2588 7.70153 22.2707C7.68372 22.2826 7.6006 22.1995 7.52341 22.0866C7.44622 21.9738 7.35122 21.8848 7.3156 21.8907C7.27997 21.9026 7.23247 21.8491 7.21466 21.7838C7.19091 21.7185 7.13747 21.677 7.09591 21.6888C6.90591 21.766 6.8881 21.5998 6.8881 19.5513V17.5148L10.3497 17.497C12.2497 17.491 13.8231 17.4791 13.8528 17.4673C13.8765 17.4613 13.8943 17.4791 13.8943 17.5148ZM16.0615 17.7285C16.109 17.7107 16.1506 17.7285 16.1506 17.7582C16.1506 17.7998 16.2159 17.8116 16.299 17.7998C16.3822 17.782 16.4653 17.7938 16.4831 17.8235C16.5009 17.8532 16.5543 17.8651 16.6018 17.8473C16.6493 17.8295 16.685 17.8413 16.685 17.871C16.685 17.9066 16.7325 17.9304 16.7918 17.9304C16.8512 17.9304 16.9522 17.972 17.0175 18.0195C17.0887 18.067 17.16 18.0907 17.1718 18.0788C17.1897 18.061 17.3025 18.0907 17.4331 18.1441C17.7775 18.2866 17.8962 18.3341 17.9556 18.3341C17.9853 18.3341 18.0268 18.3579 18.0447 18.3876C18.104 18.4707 18.5375 18.7082 18.5731 18.6726C18.5909 18.6607 18.6443 18.6963 18.6859 18.7616C18.7334 18.827 18.7987 18.8685 18.8284 18.8507C18.8581 18.827 18.8818 18.8566 18.8818 18.9041C18.8818 18.9873 18.9115 19.0051 19.0362 18.9932C19.054 18.9932 19.1253 19.0645 19.1906 19.1476C19.2559 19.2307 19.3272 19.2901 19.339 19.2723C19.3568 19.2545 19.5053 19.4029 19.6656 19.5988C19.8259 19.7888 19.9862 19.9491 20.0159 19.9491C20.0515 19.9491 20.0634 19.9729 20.0397 20.0026C20.0218 20.0323 20.0693 20.1035 20.1406 20.151C20.2118 20.2045 20.2534 20.246 20.2356 20.246C20.2118 20.246 20.2772 20.4004 20.3722 20.5845C20.58 20.9763 20.7403 21.3979 20.8412 21.7898C20.8768 21.9382 20.9243 22.0985 20.9422 22.146C21.0312 22.3835 21.0906 24.5923 21.0075 24.5448C20.9659 24.5151 20.9422 24.7348 20.9362 25.1563C20.9362 25.2276 20.9125 25.2691 20.8828 25.2513C20.8531 25.2335 20.8412 25.2691 20.8472 25.3285C20.859 25.3938 20.8234 25.5363 20.77 25.6491C20.6809 25.851 20.5206 26.3735 20.5384 26.4091C20.5443 26.4151 20.5087 26.4685 20.4553 26.516C20.4078 26.5695 20.3781 26.6348 20.3959 26.6645C20.4197 26.6941 20.4078 26.7179 20.384 26.7179C20.3365 26.7179 20.1109 27.0504 20.1287 27.086C20.1525 27.1395 19.3865 27.8638 19.06 28.0954C18.5197 28.4754 17.5697 28.9504 17.4925 28.8732C17.4806 28.8554 17.4034 28.8851 17.3262 28.9385C17.255 28.992 17.1422 29.0335 17.0828 29.0335C17.0234 29.0335 16.9165 29.0632 16.8453 29.1048C16.7087 29.176 16.3822 29.2057 16.4237 29.1463C16.4356 29.1285 16.394 29.0573 16.3287 28.992C16.2693 28.9207 16.2337 28.8554 16.2515 28.8316C16.2693 28.8138 16.2397 28.7841 16.1862 28.7604C16.1328 28.7426 16.109 28.701 16.1268 28.6713C16.1447 28.6416 16.1328 28.6179 16.1031 28.6179C16.0734 28.6179 16.0497 28.5823 16.0497 28.5407C16.0497 28.422 15.8359 27.9648 15.7765 27.9648C15.7528 27.9648 15.7468 27.9351 15.7647 27.9054C15.7825 27.8698 15.7706 27.846 15.735 27.846C15.6993 27.846 15.6875 27.8163 15.7053 27.7866C15.7231 27.751 15.7172 27.7273 15.6875 27.7273C15.6518 27.7273 15.64 27.6738 15.6578 27.6085C15.6756 27.5373 15.6578 27.4898 15.6103 27.4898C15.5687 27.4898 15.5509 27.4779 15.5687 27.4541C15.5865 27.4363 15.539 27.2345 15.4618 27.0088C15.3847 26.7773 15.3193 26.5398 15.3193 26.4745C15.3193 26.4151 15.2956 26.3616 15.2659 26.3616C15.2362 26.3616 15.2184 26.326 15.2184 26.2845C15.2303 26.1598 15.1293 25.7085 15.0937 25.7085C15.07 25.7085 15.0462 25.6491 15.0462 25.572C15.0284 25.2573 14.9572 24.5804 14.9037 24.2241C14.7909 23.4285 14.7731 23.102 14.785 22.2054C14.7968 21.7007 14.8028 21.0595 14.8087 20.7804C14.8087 20.5013 14.8384 20.2579 14.874 20.2341C14.9037 20.2104 14.9275 20.0085 14.9334 19.7829C14.9334 19.5513 14.9572 19.3791 14.9809 19.397C15.0106 19.4148 15.0284 19.3495 15.0165 19.2604C15.0106 19.1654 15.0165 19.0348 15.0403 18.9695C15.064 18.9041 15.0878 18.7557 15.1056 18.6429C15.1175 18.5301 15.1768 18.3223 15.2303 18.1798C15.2897 18.0432 15.3193 17.877 15.3015 17.8116C15.2778 17.7166 15.3075 17.6988 15.5509 17.681C15.6993 17.6691 15.8597 17.687 15.8953 17.7166C15.9368 17.7404 16.014 17.7523 16.0615 17.7285ZM7.29778 22.241C7.32747 22.2173 7.36903 22.2529 7.39278 22.3182C7.44028 22.4666 8.06372 23.0545 8.12903 23.0129C8.15872 22.9951 8.20028 23.0188 8.2181 23.0723C8.23591 23.1257 8.28341 23.1554 8.31903 23.1435C8.38435 23.1198 9.0256 23.7195 9.0256 23.8085C9.0256 23.8441 9.06716 23.8679 9.1206 23.8679C9.1681 23.8679 9.19778 23.8916 9.17403 23.9213C9.15622 23.957 9.23341 24.052 9.35216 24.147C9.5006 24.2657 9.55997 24.3607 9.55997 24.4735C9.55997 24.5685 9.57778 24.6398 9.60747 24.6398C9.63122 24.6398 9.63716 24.7823 9.63122 24.9604C9.61935 25.1326 9.63122 25.3701 9.66685 25.477C9.69653 25.5898 9.69653 25.756 9.67278 25.851C9.6431 25.952 9.65497 26.0588 9.69653 26.1301C9.74403 26.2073 9.74997 26.2548 9.69653 26.3082C9.63122 26.3735 9.66091 26.5991 9.73216 26.5991C9.75591 26.5991 9.77966 26.6407 9.77966 26.6882C9.77966 26.7357 9.76185 26.7773 9.7381 26.7773C9.71435 26.7773 9.69653 26.9613 9.70247 27.187C9.70841 27.4245 9.68466 27.5848 9.65497 27.561C9.61935 27.5432 9.61935 27.5788 9.64903 27.6441C9.67872 27.7035 9.6906 27.8579 9.68466 27.9826C9.67872 28.1013 9.70841 28.2616 9.74997 28.3388C9.79153 28.4101 9.82716 28.6951 9.8331 28.9741L9.83903 29.4788L8.34872 29.461L6.85841 29.4432V25.7382V22.0332L7.04841 22.152C7.15528 22.2173 7.2681 22.2588 7.29778 22.241ZM10.5634 24.8891C10.6643 24.8951 10.795 24.9485 10.8484 25.0079C10.9375 25.1088 10.9375 25.1326 10.8306 25.3641C10.7712 25.5007 10.7178 25.6313 10.7178 25.6491C10.7178 25.667 10.694 25.7145 10.6703 25.7501C10.6406 25.7916 10.6406 25.851 10.6584 25.8866C10.6762 25.9163 10.6643 25.946 10.6347 25.946C10.5931 25.946 10.5693 26.0826 10.5693 26.2726C10.5693 26.4507 10.5931 26.5991 10.6228 26.5991C10.7237 26.5991 10.5872 27.0504 10.4328 27.2048C10.3497 27.2879 10.2665 27.3413 10.2487 27.3235C10.2309 27.3057 10.2131 27.3235 10.2131 27.3591C10.2131 27.4007 10.1597 27.4304 10.0884 27.4304C9.99341 27.4304 9.9756 27.4066 10.0053 27.3116C10.0231 27.2463 10.0172 27.1929 9.98153 27.1929C9.94591 27.1929 9.94591 27.1276 9.98153 27.0029C10.0468 26.7595 10.0468 26.7001 9.98153 26.7476C9.95185 26.7654 9.96372 26.7001 10.0172 26.5991C10.0647 26.4982 10.0884 26.3795 10.0706 26.332C10.0528 26.2845 10.0647 26.231 10.0943 26.2132C10.1597 26.1716 10.1715 25.8688 10.1122 25.8095C10.0587 25.7501 10.0943 25.0673 10.1597 24.8951C10.2012 24.7823 10.2309 24.7585 10.2903 24.812C10.3318 24.8476 10.4565 24.8832 10.5634 24.8891ZM11.27 27.6798C11.2581 27.7213 11.2878 27.751 11.3293 27.7391C11.3768 27.7332 11.3947 27.7451 11.3768 27.7748C11.359 27.8045 11.4659 27.941 11.6084 28.0835C11.7568 28.226 11.8756 28.327 11.8756 28.3091C11.8756 28.2854 12.0359 28.4279 12.2318 28.612C12.4278 28.802 12.6059 28.9385 12.6297 28.9207C12.6475 28.9029 12.6475 28.9148 12.6297 28.9504C12.6059 28.986 12.6593 29.081 12.7365 29.1523C13.0393 29.4373 12.9918 29.4491 11.555 29.4491H10.225L10.2012 29.3066C10.1834 29.2235 10.1953 29.1226 10.219 29.081C10.2903 28.9741 10.2843 28.416 10.219 28.3448C10.1597 28.2854 10.2784 28.0716 10.3734 28.0776C10.4743 28.0835 10.6287 28.0123 10.6287 27.9588C10.6287 27.9291 10.6465 27.9113 10.6762 27.9173C10.7415 27.9291 10.9434 27.8341 11.0978 27.7154C11.264 27.5907 11.2878 27.5848 11.27 27.6798Z" fill="currentColor"/>
</svg>
