<?xml version="1.0" standalone="no"?>
<!DOCTYPE svg PUBLIC "-//W3C//DTD SVG 20010904//EN"
 "http://www.w3.org/TR/2001/REC-SVG-20010904/DTD/svg10.dtd">
<svg version="1.0" xmlns="http://www.w3.org/2000/svg"
 width="100.000000pt" height="100.000000pt" viewBox="0 0 100.000000 100.000000"
 preserveAspectRatio="xMidYMid meet">

<g transform="translate(0.000000,100.000000) scale(0.100000,-0.100000)"
fill="#000000" stroke="none">
<path d="M150 551 l0 -351 93 -1 c50 -1 109 0 130 1 27 1 45 -5 68 -25 110
-92 272 -99 359 -16 42 40 50 36 50 -20 0 -16 5 -29 10 -29 6 0 10 55 10 145
l0 145 -100 0 c-55 0 -100 -4 -100 -9 0 -12 51 -21 116 -21 l54 0 0 -49 c0
-123 -68 -185 -205 -186 -70 0 -86 4 -128 28 -26 15 -47 32 -47 36 0 5 13 14
29 21 73 30 111 115 91 200 -12 52 -56 105 -103 125 l-29 12 30 12 c44 18 82
63 96 112 l13 44 62 3 c74 4 139 -23 172 -70 27 -38 51 -23 25 17 -39 59 -142
99 -227 88 -35 -5 -39 -3 -49 23 -15 39 -38 62 -85 87 -34 18 -62 22 -187 25
l-148 4 0 -351z m278 313 c65 -19 112 -60 112 -98 0 -14 -4 -26 -9 -26 -18 0
-113 -94 -132 -131 l-19 -39 -100 0 -100 0 0 155 0 155 96 0 c59 0 117 -6 152
-16z m112 -185 c-12 -41 -37 -68 -77 -85 -45 -19 -47 -18 -26 17 18 31 90 99
104 99 4 0 4 -14 -1 -31z m-178 -236 c-3 -78 0 -110 16 -156 l19 -58 -26 3
c-16 2 -34 16 -48 37 -21 31 -22 36 -8 57 19 30 19 34 -4 34 -33 0 -36 22 -8
42 15 11 27 25 27 31 0 8 -3 8 -9 -1 -4 -7 -12 -12 -17 -11 -5 1 -17 -1 -26
-5 -9 -4 -26 -3 -37 3 -18 10 -20 9 -14 -6 7 -17 5 -17 -17 -2 -21 14 -26 26
-28 73 l-3 56 93 0 94 0 -4 -97z m115 70 c49 -23 73 -66 73 -131 0 -70 -21
-109 -73 -133 l-42 -19 -19 42 c-22 49 -32 146 -22 212 8 53 23 58 83 29z
m-239 -142 c6 -8 12 -28 12 -44 0 -16 4 -26 10 -22 6 3 10 15 10 26 0 11 4 18
9 15 13 -8 -4 -62 -18 -58 -7 1 -10 -9 -9 -27 2 -17 0 -30 -4 -30 -5 -1 -21
-1 -38 -1 l-30 0 0 97 0 96 23 -19 c12 -10 28 -25 35 -33z m77 -121 c18 -20
17 -20 -13 -20 -30 0 -42 16 -25 33 10 11 19 8 38 -13z"/>
</g>
</svg>
