<svg width="42" height="42" viewBox="0 0 42 42" fill="none" xmlns="http://www.w3.org/2000/svg">
<path d="M6.36474 18.8673C6.36474 27.0048 6.35818 33.6854 6.35162 33.7116C6.32537 33.7773 15.8082 33.8166 15.946 33.7576C15.9985 33.7313 16.2282 33.7182 16.4579 33.7248C16.681 33.7379 16.9041 33.7182 16.9501 33.6854C16.996 33.6526 17.1994 33.6395 17.4094 33.6526C17.7376 33.6723 17.7966 33.6985 17.8819 33.8495C17.9869 34.0529 19.2929 35.3654 19.2929 35.2735C19.2929 35.2407 19.3388 35.2801 19.3979 35.3588C19.4504 35.4376 19.5291 35.4901 19.5619 35.4704C19.5947 35.4441 19.621 35.4573 19.621 35.4966C19.621 35.5754 20.6054 36.2579 20.6054 36.1791C20.6054 36.1529 20.6316 36.1595 20.6579 36.1988C20.7366 36.3104 21.3338 36.6188 21.3994 36.5795C21.4322 36.5598 21.4585 36.5729 21.4585 36.6057C21.4585 36.6713 21.8129 36.8354 21.9572 36.8354C22.0097 36.8354 22.0491 36.8682 22.0491 36.901C22.0491 36.9338 22.1082 36.947 22.1804 36.9273C22.2526 36.9076 22.3116 36.9207 22.3116 36.9601C22.3116 36.9929 22.3444 36.9995 22.3772 36.9798C22.4166 36.9601 22.4429 36.9863 22.4429 37.052C22.4429 37.1373 22.4626 37.1438 22.5347 37.0848C22.6004 37.0323 22.6397 37.0257 22.6726 37.0782C22.6922 37.1176 22.7382 37.1307 22.771 37.111C22.7972 37.0913 22.8366 37.1241 22.8563 37.1701C22.876 37.2226 22.9482 37.2685 23.0138 37.262C23.0794 37.262 23.3026 37.3079 23.5126 37.367C23.716 37.426 23.9522 37.472 24.0376 37.472C24.346 37.4785 24.5429 37.5048 24.5429 37.5441C24.5429 37.5901 24.7726 37.6098 25.3632 37.6295C25.5469 37.6295 25.711 37.6623 25.7372 37.7016C25.8029 37.787 28.2113 37.787 28.2704 37.7016C28.2966 37.6623 28.4869 37.6295 28.6904 37.6163C29.0382 37.5966 29.281 37.5507 30.2194 37.321C30.7051 37.2029 30.8429 37.1504 30.8429 37.0651C30.8429 37.0323 30.8691 37.0191 30.9019 37.0454C30.9741 37.0848 31.4335 36.8813 31.4335 36.8026C31.4335 36.7763 31.4729 36.7698 31.5254 36.7895C31.6304 36.8288 31.7157 36.7829 32.536 36.2316C32.8379 36.0348 33.1463 35.7854 33.2185 35.687C33.2907 35.582 33.3694 35.5163 33.4022 35.536C33.4351 35.5557 33.4941 35.5295 33.5466 35.477C33.5926 35.4245 33.7829 35.2276 33.9601 35.0307C34.4785 34.4926 34.8132 34.0595 35.1413 33.5345C35.3054 33.2654 35.4366 33.062 35.4432 33.0751C35.4432 33.0948 35.4563 33.2982 35.4629 33.5345C35.476 33.7707 35.4957 33.9741 35.5022 33.9938C35.5088 34.0135 35.5088 34.2235 35.5022 34.4663C35.4957 34.7157 35.5154 34.9126 35.5482 34.9126C35.5744 34.9126 35.6072 35.1554 35.6072 35.4507C35.6138 35.7526 35.6204 36.2382 35.6269 36.5401C35.6269 36.842 35.6597 37.0716 35.686 37.052C35.7188 37.0323 35.7319 37.111 35.7254 37.2291L35.7057 37.4391L36.1585 37.4457C36.5194 37.4457 36.6113 37.426 36.631 37.3473C36.6441 37.2882 36.6376 34.5123 36.6179 31.172L36.5851 25.1016L32.5491 25.082C30.331 25.0754 28.4476 25.082 28.3622 25.1016C28.2179 25.1345 28.2113 25.1607 28.231 25.6791L28.2507 26.2173L31.8469 26.237L35.4366 26.2501V27.3263C35.4366 27.9235 35.4563 28.4551 35.4826 28.5207C35.5088 28.5995 35.5022 28.6191 35.4432 28.5798C35.3776 28.5404 35.3644 28.6257 35.3841 28.9604C35.3907 29.1966 35.3776 29.3738 35.3447 29.3541C35.3185 29.3345 35.2988 29.4723 35.3119 29.656C35.3251 29.8398 35.3119 29.9907 35.2791 29.9907C35.2529 29.9907 35.2397 30.0629 35.2529 30.1548C35.2726 30.2466 35.2594 30.3188 35.2266 30.3188C35.1938 30.3188 35.1741 30.3976 35.1807 30.5026C35.1938 30.601 35.161 30.752 35.1151 30.8373C35.0691 30.916 35.0429 31.0473 35.0626 31.1129C35.0822 31.1785 35.0691 31.2376 35.0429 31.2376C34.9904 31.2376 34.8526 31.592 34.8197 31.802C34.8132 31.8545 34.7672 31.9332 34.7279 31.9726C34.6819 32.0185 34.6491 32.0907 34.6491 32.1301C34.6491 32.176 34.5572 32.3795 34.4457 32.5763C34.3407 32.7798 34.2685 32.9438 34.2947 32.9438C34.321 32.9438 34.3013 32.9832 34.2488 33.0291C34.1897 33.0685 33.9929 33.3179 33.8091 33.5673C33.5138 33.9741 32.9954 34.5057 32.3654 35.0438C32.2604 35.1357 32.1291 35.2013 32.0701 35.1882C32.0176 35.1751 31.9519 35.2276 31.9257 35.3063C31.906 35.3785 31.8535 35.4245 31.8207 35.4048C31.7879 35.3785 31.6763 35.4245 31.5713 35.4966C31.4663 35.5754 31.3482 35.6345 31.3088 35.6345C31.2694 35.6345 31.2366 35.6673 31.2366 35.7066C31.2366 35.7395 31.2104 35.7526 31.171 35.7329C31.1382 35.7132 31.1054 35.7198 31.1054 35.7591C31.1054 35.7985 31.0594 35.8116 31.0069 35.792C30.9544 35.7657 30.8691 35.7788 30.8232 35.8182C30.7051 35.9166 29.8716 36.1595 29.6551 36.1595C29.5566 36.1595 29.4319 36.1988 29.386 36.2448C29.3401 36.2973 29.2547 36.3235 29.1891 36.3038C29.1235 36.2907 29.0185 36.2973 28.9594 36.3235C28.8938 36.3498 28.7297 36.3695 28.5854 36.3563C28.4476 36.3498 28.3491 36.3695 28.3688 36.4023C28.4082 36.4613 28.2704 36.4679 26.7938 36.4876C26.2229 36.4941 25.5797 36.4745 25.3632 36.4351C24.9563 36.3629 24.9301 36.3629 24.5429 36.3366C24.4182 36.3301 24.2935 36.2973 24.2738 36.271C24.2541 36.2448 24.1229 36.2054 23.9785 36.1857C23.5126 36.1201 23.4601 36.1135 23.2632 36.0282C23.1582 35.9823 22.9876 35.9429 22.8891 35.9363C22.7841 35.9363 22.7054 35.9035 22.7054 35.8773C22.7054 35.8445 22.6791 35.8445 22.6397 35.8641C22.6069 35.8838 22.5741 35.8707 22.5741 35.8379C22.5741 35.7985 22.5151 35.7657 22.4494 35.7657C22.3772 35.7657 22.2985 35.7329 22.2788 35.6935C22.2526 35.6541 22.1935 35.641 22.141 35.6607C22.0885 35.6804 22.0491 35.6673 22.0491 35.6279C22.0491 35.5885 22.0229 35.5754 21.9901 35.5951C21.9572 35.6213 21.9179 35.6082 21.9047 35.5754C21.8982 35.5426 21.8391 35.5032 21.7866 35.4901C21.7341 35.477 21.6488 35.431 21.6029 35.3851C21.5504 35.3391 21.4847 35.3195 21.4519 35.3391C21.4191 35.3654 21.3929 35.3523 21.3929 35.326C21.3929 35.2538 21.0319 35.0373 20.9729 35.0766C20.9532 35.0963 20.9466 35.0898 20.9663 35.0701C20.9794 35.0438 20.8482 34.9323 20.671 34.8207C20.4938 34.7091 20.1919 34.4926 20.0016 34.3416C19.5751 34.0135 19.1485 33.6198 19.3257 33.7313C19.3979 33.7773 19.3585 33.7182 19.2338 33.6066C19.0041 33.4032 18.9976 33.3245 19.2141 33.3048C19.2732 33.2982 19.4438 33.2391 19.5882 33.1735C19.7326 33.1079 19.8966 33.0488 19.9491 33.0423C20.1394 33.016 20.3429 32.9373 20.3429 32.8782C20.3429 32.8454 20.4151 32.8323 20.5069 32.852C20.5988 32.8651 20.671 32.852 20.671 32.8191C20.671 32.7798 20.8022 32.6945 20.9663 32.6223C21.1304 32.5501 21.2616 32.4582 21.2616 32.4123C21.2616 32.3663 21.2813 32.3466 21.301 32.3729C21.3338 32.4057 21.4979 32.3204 22.0163 31.9988C22.1279 31.9332 22.2722 31.7823 22.351 31.6707C22.4232 31.5591 22.5151 31.4738 22.5544 31.4804C22.5872 31.487 22.7185 31.3885 22.8366 31.2704C22.9613 31.1457 23.0335 31.0407 23.0072 31.0407C22.981 31.0407 23.0532 30.962 23.1647 30.8701C23.2763 30.7716 23.3551 30.6863 23.3354 30.6666C23.3222 30.6535 23.3813 30.5616 23.4666 30.4698C23.5519 30.3779 23.6044 30.2795 23.5847 30.2466C23.5651 30.2138 23.5782 30.1876 23.6176 30.1876C23.7029 30.1876 24.031 29.5051 24.2147 28.9407C24.2935 28.7045 24.3722 28.4682 24.3919 28.4157C24.4116 28.3632 24.4379 28.2582 24.451 28.186C24.5232 27.6676 24.5691 27.2082 24.5691 26.8538C24.5757 26.6307 24.5954 26.447 24.6282 26.447C24.6544 26.447 24.6741 26.296 24.6741 26.1123C24.6741 25.9351 24.6544 25.7973 24.6282 25.8104C24.5954 25.8301 24.5757 25.6595 24.5691 25.4429C24.5691 25.0754 24.5363 24.7407 24.4576 24.2813C24.4051 23.9926 24.0901 23.1329 24.0244 23.1132C23.9851 23.1001 23.9719 23.0541 23.9916 23.0148C24.0244 22.9098 23.7094 22.3126 23.4732 22.0566C23.3747 21.9451 23.3157 21.8532 23.3419 21.8532C23.3747 21.8532 23.3354 21.8073 23.2697 21.7548C23.1976 21.7023 23.1647 21.6563 23.191 21.6563C23.2697 21.6563 23.0072 21.3413 22.4954 20.8229C22.2394 20.5604 22.0097 20.3635 21.9835 20.3766C21.9507 20.3963 21.9179 20.3635 21.8982 20.3176C21.8785 20.2651 21.7013 20.1207 21.511 19.996C21.3207 19.8779 21.1107 19.7204 21.0451 19.6613C20.986 19.5957 20.9335 19.5629 20.9335 19.5826C20.9335 19.6088 20.7957 19.5498 20.6251 19.4645C20.4479 19.3726 20.2313 19.2676 20.1329 19.2348C20.0279 19.1954 19.9491 19.1363 19.9491 19.097C19.9491 19.0576 19.9229 19.0379 19.8966 19.0576C19.8704 19.0707 19.6735 19.0313 19.4635 18.9657C19.2535 18.8935 19.0632 18.841 19.0435 18.8476C18.9582 18.8607 18.571 18.6901 18.571 18.6376C18.571 18.6113 18.7154 18.572 18.8991 18.5457C19.0763 18.5195 19.2666 18.4604 19.3126 18.4079C19.3651 18.3554 19.4241 18.3291 19.4438 18.3554C19.4635 18.3751 19.5751 18.3423 19.6932 18.2832C19.8047 18.2241 19.9229 18.1979 19.9557 18.211C19.9819 18.2307 20.0213 18.2176 20.0476 18.1782C20.0672 18.1454 20.2313 18.047 20.4151 17.9748C20.5922 17.896 20.7366 17.8107 20.7366 17.7779C20.7366 17.7451 20.7563 17.7254 20.7891 17.7254C20.9466 17.7516 21.0647 17.7057 21.0647 17.6204C21.0647 17.5679 21.1041 17.522 21.1501 17.522C21.2682 17.522 22.0032 16.9838 22.1672 16.7673C22.2394 16.6754 22.3182 16.6032 22.3313 16.6163C22.3444 16.6295 22.4429 16.531 22.5479 16.4063C22.6529 16.2816 22.771 16.1438 22.8169 16.111C22.9285 16.0126 23.6241 14.9691 23.6241 14.8904C23.6241 14.8576 23.6832 14.7066 23.7554 14.5557C23.8276 14.4113 23.8669 14.2604 23.8407 14.221C23.821 14.1816 23.8341 14.1751 23.8735 14.2013C23.9522 14.2473 23.9588 14.221 23.9851 13.9126C23.9916 13.8207 24.031 13.6763 24.0769 13.5976C24.1229 13.5123 24.1491 13.4007 24.1426 13.3351C24.136 13.276 24.1622 13.1382 24.2082 13.0266C24.2541 12.9216 24.2804 12.7576 24.2738 12.6657C24.2672 12.5738 24.2804 12.2982 24.3132 12.0554C24.3657 11.5566 24.3985 11.5238 24.8907 11.4582C25.0613 11.432 25.1991 11.3926 25.1991 11.3663C25.1991 11.3401 25.396 11.3138 25.6388 11.3007C25.8816 11.2876 26.1047 11.2482 26.131 11.2023C26.1638 11.1498 26.2163 11.1498 26.3279 11.1957C26.4132 11.2351 26.6691 11.2482 26.9119 11.2285C27.1482 11.2023 27.5747 11.2023 27.8635 11.2285C28.1457 11.2482 28.4607 11.2416 28.5591 11.2154C28.6641 11.1891 28.756 11.1957 28.7822 11.2351C28.8085 11.2679 28.8938 11.2876 28.9791 11.2679C29.0644 11.2548 29.1432 11.2613 29.1497 11.2941C29.1629 11.3204 29.3401 11.3532 29.5435 11.3663C29.7535 11.3795 29.9241 11.4057 29.9241 11.4254C29.9241 11.4648 30.2129 11.5304 30.5344 11.5632C30.5935 11.5698 30.646 11.6026 30.646 11.6354C30.646 11.6682 30.6919 11.6813 30.7444 11.6551C30.8035 11.6354 30.8429 11.6551 30.8429 11.7207C30.8429 11.7929 30.8822 11.8191 30.9741 11.7929C31.0463 11.7732 31.1251 11.7863 31.1447 11.8257C31.1644 11.8585 31.2235 11.8716 31.276 11.852C31.3285 11.8323 31.3679 11.8454 31.3679 11.8848C31.3679 11.9241 31.4007 11.9307 31.4335 11.911C31.4729 11.8913 31.4991 11.9045 31.4991 11.9438C31.4991 11.9832 31.5254 11.9963 31.5647 11.9766C31.6041 11.957 31.6304 11.9635 31.6304 12.0029C31.6304 12.0554 32.0832 12.2457 32.1357 12.2195C32.1488 12.2129 32.2341 12.2851 32.326 12.3704C32.4244 12.4623 32.5163 12.5213 32.5294 12.5082C32.5426 12.4951 32.6476 12.5673 32.7526 12.6657C32.8641 12.7641 33.0282 12.8888 33.1201 12.9348C33.2185 12.9873 33.4744 13.217 33.691 13.4466C33.9141 13.6829 34.1569 13.9388 34.2291 14.0176C34.3079 14.1029 34.3604 14.1816 34.3472 14.1948C34.3276 14.2145 34.4063 14.2998 34.5113 14.3916C34.6163 14.477 34.6951 14.5688 34.6754 14.582C34.6622 14.6016 34.7213 14.6935 34.8066 14.7854C34.8919 14.8773 34.9444 14.9691 34.9313 14.9888C34.9116 15.0085 34.9444 15.0413 35.0035 15.0676C35.0626 15.0873 35.0888 15.1332 35.0691 15.166C35.0494 15.1988 35.0691 15.2251 35.1085 15.2251C35.1479 15.2251 35.1676 15.2513 35.1413 15.2841C35.1216 15.3235 35.161 15.376 35.2201 15.4154C35.2857 15.4548 35.3119 15.4876 35.2791 15.4876C35.2135 15.4876 35.3644 15.6845 35.4366 15.6845C35.4629 15.6845 35.5941 15.5729 35.7385 15.4351C35.8763 15.2973 36.0666 15.1398 36.1519 15.0807C36.3291 14.956 36.3094 14.7526 36.0929 14.5163C36.0207 14.4376 35.9616 14.3654 35.9682 14.3588C36.001 14.3063 35.686 13.7813 35.6269 13.7813C35.5876 13.7813 35.5744 13.7551 35.5941 13.7288C35.6072 13.7026 35.4694 13.5123 35.2791 13.3023C35.0888 13.0988 34.9444 12.9282 34.9641 12.9282C34.9838 12.9282 34.9182 12.8429 34.8132 12.7313C34.7082 12.6263 34.6163 12.5476 34.6032 12.5607C34.5901 12.5673 34.3997 12.4098 34.1766 12.1998C33.9469 11.9963 33.7435 11.8388 33.7172 11.852C33.6844 11.8716 33.6647 11.8585 33.6647 11.8257C33.6647 11.6879 32.2538 10.8676 32.1422 10.9332C32.116 10.9529 32.0897 10.9398 32.0897 10.907C32.0897 10.8282 31.7682 10.6838 31.696 10.7298C31.6632 10.7495 31.6304 10.7298 31.6172 10.6904C31.5779 10.5657 30.5016 10.2179 30.121 10.2113C29.9963 10.2048 29.8716 10.1785 29.8454 10.1391C29.8191 10.1063 29.6747 10.0735 29.5172 10.067C29.3597 10.0604 29.1826 10.0341 29.1235 10.0079C29.0579 9.98164 28.966 9.97508 28.9135 9.99477C28.861 10.0145 28.8085 10.0013 28.7954 9.96195C28.756 9.85039 26.3016 9.85039 26.2688 9.95539C26.2491 10.0079 26.1704 10.021 26.0522 9.99477C25.9472 9.97508 25.8094 9.98164 25.7438 10.0079C25.6782 10.0341 25.5207 10.067 25.396 10.0801C24.9497 10.1195 24.6085 10.1851 24.6085 10.231C24.6085 10.2507 24.5101 10.2704 24.3985 10.277C24.1819 10.277 24.1819 10.277 24.1622 9.92258C24.1557 9.7257 24.1097 9.50258 24.0704 9.42383C24.0244 9.35164 23.9982 9.26633 23.9982 9.24664C24.031 9.1482 23.6766 8.29508 23.5782 8.21633C23.5191 8.17695 23.4863 8.13758 23.5126 8.13758C23.6635 8.13758 22.6069 6.68726 22.4101 6.60851C22.3838 6.60195 22.2329 6.4707 22.0688 6.31977C21.9047 6.16227 21.7472 6.05727 21.7144 6.07695C21.6816 6.09664 21.6554 6.08352 21.6554 6.04414C21.6554 5.97195 21.2616 5.7357 21.1829 5.76195C21.1501 5.76852 21.1304 5.74227 21.1304 5.69633C21.1304 5.65695 21.1107 5.63726 21.091 5.65695C21.0713 5.6832 20.9991 5.64383 20.9269 5.57164C20.8547 5.49945 20.7694 5.46008 20.7366 5.47977C20.6972 5.50602 20.671 5.48633 20.671 5.45352C20.671 5.41414 20.6316 5.38133 20.5791 5.38133C20.5332 5.38133 20.4019 5.33539 20.3035 5.28289C20.1985 5.23039 20.0672 5.18445 20.0147 5.18445C19.9557 5.18445 19.8441 5.13852 19.7654 5.07945C19.6866 5.02695 19.621 5.0007 19.621 5.02695C19.621 5.04664 19.5816 5.04008 19.5422 5.00727C19.4438 4.92852 19.0632 4.79727 18.7941 4.75133C18.6957 4.73164 18.5907 4.70539 18.571 4.69226C18.5447 4.67914 18.4397 4.64633 18.3347 4.6332C18.2297 4.61352 18.0722 4.5807 17.9804 4.55445C17.8885 4.53477 17.6851 4.50195 17.521 4.48227C17.3569 4.46258 17.2126 4.4232 17.1929 4.39695C17.1601 4.34445 16.5629 4.28539 15.4079 4.21977C15.0141 4.20008 14.6991 4.1607 14.6991 4.12789C14.6991 4.09508 12.8222 4.06883 10.5319 4.06883H6.36474V18.8673ZM13.7147 5.05977C15.7885 5.15164 16.9304 5.27633 16.9304 5.4207C16.9304 5.51258 17.1076 5.5782 17.3569 5.5782C17.6457 5.5782 17.7704 5.61102 17.7376 5.66352C17.7179 5.69633 17.7704 5.70945 17.8557 5.70289C17.941 5.68977 18.0788 5.71602 18.1576 5.76195C18.2363 5.80789 18.3413 5.8407 18.3872 5.8407C18.4332 5.8407 18.5447 5.88008 18.6366 5.92602C18.7285 5.97195 18.8794 6.00477 18.9844 6.00477C19.0829 5.9982 19.1616 6.01789 19.1616 6.0507C19.1616 6.07695 19.2797 6.13602 19.4241 6.17539C19.5685 6.22133 19.6866 6.28695 19.6866 6.31977C19.6866 6.35914 19.7063 6.37226 19.726 6.34601C19.7457 6.32633 19.8704 6.3657 20.0016 6.43133C20.1263 6.50352 20.2576 6.54289 20.2904 6.5232C20.3166 6.50351 20.3429 6.51664 20.3429 6.55601C20.3429 6.58883 20.4544 6.68727 20.5922 6.76602C20.9138 6.96945 20.9466 6.9957 21.4126 7.42883C21.6357 7.63883 21.8391 7.80945 21.8719 7.80945C21.8982 7.80945 21.9179 7.85539 21.9179 7.90789C21.9179 7.96695 21.9638 8.02602 22.0163 8.0457C22.0688 8.07195 22.1016 8.11133 22.0819 8.13758C22.0688 8.16383 22.1213 8.26227 22.2066 8.35414C22.2919 8.44602 22.351 8.53789 22.3379 8.55102C22.2985 8.59039 22.5151 9.05633 22.5676 9.05633C22.5872 9.05633 22.6135 9.12195 22.6201 9.20727C22.6201 9.28602 22.666 9.43695 22.7054 9.54852C22.7513 9.65352 22.7972 9.79133 22.8038 9.84383C22.8104 9.89633 22.8366 10.0998 22.8629 10.2901C22.9219 10.6707 22.8497 10.8282 22.6266 10.8282C22.561 10.8282 22.4888 10.8741 22.4691 10.9266C22.4429 10.9791 22.4035 11.012 22.3772 10.9923C22.2919 10.9398 22.1147 11.0316 22.1607 11.1104C22.1804 11.1432 22.1672 11.1563 22.1279 11.1301C22.0885 11.1104 22.0163 11.1301 21.9638 11.1826C21.9113 11.2351 21.8522 11.2613 21.826 11.2416C21.8063 11.2154 21.7866 11.2416 21.7866 11.2876C21.7866 11.3335 21.7669 11.3532 21.7407 11.3335C21.721 11.3073 21.6619 11.3204 21.6094 11.3598C21.5635 11.3991 21.5241 11.4123 21.5241 11.3795C21.5241 11.3466 21.4979 11.3466 21.4716 11.386C21.4454 11.4188 21.2288 11.5829 20.986 11.7404C20.7432 11.9045 20.566 12.062 20.5791 12.0882C20.5988 12.121 20.5857 12.1341 20.5529 12.1276C20.3494 12.062 18.1182 14.1554 18.2166 14.3195C18.2429 14.3588 18.2297 14.372 18.1969 14.3523C18.1379 14.3129 18.0197 14.477 18.046 14.5557C18.046 14.5623 17.9804 14.641 17.8885 14.7198C17.6654 14.9232 17.2519 15.5532 17.2979 15.6254C17.3176 15.6582 17.3044 15.6845 17.2716 15.6845C17.2322 15.6845 17.1469 15.8026 17.0682 15.947C16.996 16.0913 16.9501 16.2095 16.9697 16.2095C16.9829 16.2095 16.9435 16.2751 16.8647 16.3538C16.7466 16.4851 16.7269 16.531 16.7401 16.6426C16.7401 16.6688 16.7138 16.7082 16.6744 16.7279C16.5957 16.7804 16.1363 17.8304 16.1626 17.9223C16.1691 17.9616 16.0444 18.001 15.8804 18.0076C15.7163 18.0207 15.3488 18.047 15.0601 18.0732C14.7713 18.0995 14.4629 18.1191 14.371 18.1191C12.0872 18.106 8.55005 18.1257 8.09068 18.152L7.48037 18.1979V11.5895V4.98758L9.89537 4.99414C11.221 4.99414 12.9404 5.02695 13.7147 5.05977ZM22.9876 12.2391C23.0138 12.2916 23.0007 12.3507 22.9679 12.3704C22.9351 12.3901 22.9022 12.5016 22.9022 12.6198C22.8826 13.112 22.8694 13.2563 22.8104 13.2563C22.7841 13.2563 22.771 13.2957 22.7907 13.3482C22.8104 13.4007 22.8104 13.4532 22.7841 13.4663C22.7382 13.486 22.4822 14.2145 22.4757 14.3391C22.4757 14.372 22.456 14.4179 22.4297 14.4376C22.4101 14.4573 22.3772 14.5163 22.3641 14.5688C22.351 14.6213 22.3116 14.6935 22.2657 14.7329C22.2197 14.7657 22.1804 14.8379 22.1672 14.8904C22.1541 14.9429 22.0754 15.0676 21.9966 15.166C21.9113 15.2645 21.8326 15.3695 21.8326 15.4023C21.8129 15.4745 20.9335 16.2751 20.8679 16.2751C20.8351 16.2751 20.7957 16.3341 20.7694 16.4063C20.7497 16.4785 20.7104 16.531 20.6841 16.5179C20.6579 16.5113 20.4151 16.6295 20.1394 16.787C19.8638 16.9379 19.6013 17.0626 19.5619 17.0626C19.516 17.0626 19.5029 17.0954 19.5291 17.1413C19.5554 17.1807 19.5488 17.1938 19.5094 17.1741C19.4372 17.1282 19.0107 17.2529 18.7679 17.3841C18.676 17.4366 18.5447 17.4891 18.4726 17.4957C18.3216 17.5154 17.9344 17.6138 17.7704 17.686C17.626 17.7451 17.626 17.6991 17.7507 17.4629C17.8032 17.3579 17.8229 17.2595 17.8032 17.2332C17.7769 17.2135 17.7966 17.1938 17.8426 17.1938C17.8885 17.1938 17.9016 17.161 17.8819 17.1282C17.8622 17.0888 17.8885 17.0626 17.941 17.0626C18.0001 17.0626 18.046 17.0166 18.046 16.9576C18.046 16.9051 18.1313 16.7016 18.2429 16.5113C18.3479 16.3145 18.4135 16.1438 18.3938 16.1176C18.3676 16.0979 18.3807 16.0782 18.4201 16.0782C18.4988 16.0782 18.8729 15.5466 18.8466 15.4679C18.8401 15.4416 18.8794 15.422 18.9319 15.422C18.9844 15.422 19.0304 15.3826 19.0304 15.3366C19.0304 15.2907 19.1616 15.107 19.3257 14.9166C19.4897 14.7329 19.621 14.5491 19.621 14.5098C19.621 14.4704 19.7194 14.3785 19.8376 14.3063C19.9491 14.2341 20.0476 14.1554 20.041 14.1291C20.0344 14.057 21.3863 12.9479 21.6226 12.8363C21.7341 12.7838 21.8851 12.6788 21.9704 12.6001C22.0491 12.5279 22.1147 12.482 22.1147 12.4951C22.1147 12.5148 22.2526 12.4426 22.4232 12.3376C22.7644 12.121 22.9351 12.0882 22.9876 12.2391ZM15.3554 19.3595C15.3554 19.3923 15.421 19.4251 15.4932 19.4251C15.6113 19.4251 15.6244 19.4513 15.5851 19.6023C15.5588 19.7073 15.5326 19.8648 15.526 19.9566C15.5129 20.0485 15.4866 20.1601 15.4604 20.206C15.4341 20.2454 15.4276 20.3307 15.4472 20.3832C15.4669 20.4423 15.4604 20.462 15.421 20.4423C15.3751 20.416 15.3488 20.4816 15.3488 20.6195C15.3554 21.0198 15.3226 21.2954 15.2701 21.3348C15.2438 21.3545 15.211 21.5513 15.2044 21.7745C15.1979 21.9976 15.1716 22.1813 15.1454 22.1813C15.0994 22.1813 15.0732 23.0148 15.0666 24.3929C15.0666 25.6332 15.0994 26.5126 15.1454 26.5126C15.1716 26.5126 15.1913 26.6241 15.1847 26.7554C15.1782 26.8932 15.1913 27.031 15.211 27.0704C15.2307 27.1032 15.2438 27.2148 15.2307 27.3132C15.2241 27.4182 15.2372 27.497 15.2701 27.497C15.2963 27.497 15.3291 27.6938 15.3422 27.9301C15.3488 28.1729 15.3947 28.4288 15.4341 28.5076C15.4801 28.5798 15.5063 28.6979 15.4932 28.757C15.4866 28.8226 15.5194 28.9407 15.5588 29.0195C15.6047 29.1048 15.6376 29.2426 15.6244 29.3279C15.6113 29.4198 15.631 29.4657 15.6769 29.4395C15.7163 29.4132 15.736 29.4329 15.7097 29.4854C15.6901 29.5379 15.7032 29.6035 15.736 29.6232C15.7754 29.6429 15.7885 29.7216 15.7688 29.7938C15.7491 29.866 15.7622 29.9251 15.7951 29.9251C15.8279 29.9251 15.8541 29.9907 15.8672 30.076C15.8804 30.2795 16.3463 31.4016 16.6285 31.9332C16.7597 32.176 16.8516 32.386 16.8319 32.4123C16.7729 32.4648 16.0313 32.5435 15.3422 32.5632C14.8041 32.5829 14.7647 32.5763 14.7057 32.432C14.6663 32.3532 14.6072 32.2876 14.5679 32.2876C14.5285 32.2876 14.5154 32.2613 14.5351 32.222C14.581 32.1432 14.3907 31.7626 14.2988 31.7626C14.2594 31.7626 14.2529 31.7298 14.2726 31.697C14.2922 31.6576 14.2791 31.6313 14.2397 31.6313C14.2004 31.6313 14.1807 31.6051 14.2069 31.5723C14.2463 31.5001 13.7804 31.0998 13.7016 31.1457C13.6754 31.1654 13.6491 31.1326 13.6491 31.0735C13.6491 31.021 13.6032 30.9554 13.5507 30.9357C13.4982 30.9095 13.4719 30.8701 13.4916 30.8373C13.5113 30.8045 13.4916 30.7782 13.4588 30.7782C13.4194 30.7782 13.3932 30.7585 13.3997 30.7257C13.4063 30.6995 13.3341 30.5551 13.2357 30.4041C13.1372 30.2466 13.0585 30.0498 13.0585 29.9579C13.0585 29.866 13.0257 29.7938 12.9863 29.7938C12.9535 29.7938 12.9404 29.761 12.9601 29.7216C12.9863 29.6823 12.9535 29.6101 12.8879 29.5576C12.8157 29.4985 12.8026 29.4723 12.8616 29.4985C12.9141 29.5248 12.8813 29.4723 12.7894 29.3804C12.6319 29.236 12.6254 29.2098 12.7107 29.0457C12.7632 28.9538 12.7829 28.8488 12.7697 28.816C12.7501 28.7832 12.7763 28.7241 12.8288 28.6782C12.8813 28.6323 12.9076 28.5732 12.8879 28.5404C12.8682 28.5076 12.8879 28.4813 12.9207 28.4813C13.0257 28.4813 13.1832 28.0679 13.111 27.976C13.0782 27.9301 13.0782 27.8841 13.1176 27.8645C13.1504 27.8382 13.1963 27.8513 13.2226 27.8907C13.2422 27.9235 13.3341 27.9498 13.4194 27.9432C13.5704 27.9301 13.6097 27.8841 13.5704 27.7857C13.5572 27.766 13.6032 27.7201 13.6688 27.6873C13.7344 27.6479 13.7804 27.5429 13.7804 27.4313C13.7804 27.2016 13.6491 26.8998 13.5769 26.9457C13.5441 26.9654 13.5179 26.9588 13.5179 26.926C13.5179 26.8276 12.9469 26.8801 12.7697 26.9916C12.6779 27.0573 12.5926 27.1688 12.5926 27.2541C12.586 27.3657 12.5794 27.3723 12.5532 27.2804C12.5335 27.2148 12.4876 27.1885 12.4482 27.2082C12.4022 27.2345 12.3891 27.2345 12.4154 27.2016C12.4547 27.1557 12.3891 27.0507 12.0741 26.6635C12.0347 26.6176 12.0085 26.5716 12.0151 26.5651C12.0413 26.5191 11.9297 26.2501 11.8838 26.2501C11.8641 26.2501 11.8379 26.1976 11.8313 26.132C11.8247 26.0729 11.8116 25.9613 11.7985 25.8957C11.7657 25.7579 12.1004 25.4166 12.4482 25.2395C12.5663 25.1804 12.691 25.082 12.7238 25.0229C12.7632 24.9573 12.796 24.9245 12.796 24.9573C12.796 24.9835 12.9601 24.8982 13.1569 24.767C13.3538 24.6357 13.4982 24.5045 13.4785 24.4716C13.4588 24.4388 13.4785 24.4126 13.5113 24.4126C13.5966 24.4126 13.8919 23.8285 13.8788 23.6907C13.8722 23.6382 13.8591 23.5398 13.8591 23.4741C13.8526 23.402 13.7935 23.3626 13.6885 23.3626C13.4654 23.3626 13.4063 23.4938 13.5638 23.6251L13.6951 23.7301L13.5441 23.9204C13.4588 24.0254 13.4063 24.1238 13.4194 24.137C13.4588 24.1829 13.2029 24.3535 12.8419 24.5373C12.5269 24.7013 12.3891 24.6948 12.5532 24.5307C12.6451 24.4454 12.796 24.1895 12.796 24.1238C12.796 24.032 12.5663 23.8876 12.4088 23.8876C12.2054 23.8876 12.0807 24.0057 11.9101 24.347C11.746 24.6816 11.4179 24.9376 11.4179 24.7341C11.4179 24.6948 11.3588 24.6751 11.2866 24.6948C11.2144 24.7145 11.1554 24.6948 11.1488 24.6554C11.1488 24.5963 11.1357 24.5963 11.116 24.6554C11.0832 24.7276 10.7026 24.662 10.5319 24.557C10.4991 24.5307 10.4532 24.511 10.4335 24.511C10.4138 24.5045 10.3022 24.452 10.1776 24.3863C10.0594 24.3207 9.90193 24.2813 9.8363 24.301C9.76412 24.3207 9.71162 24.301 9.71162 24.2616C9.71162 24.2223 9.69193 24.2091 9.67224 24.2288C9.65255 24.2551 9.58037 24.2157 9.50818 24.1435C9.37037 24.0057 9.2063 23.986 9.05537 24.0845C8.97005 24.1435 8.97005 24.1566 9.05537 24.2157C9.10787 24.2485 9.12755 24.2813 9.08818 24.2813C8.91755 24.2813 9.18662 24.406 9.40318 24.4257C9.53443 24.4323 9.64599 24.4651 9.64599 24.4913C9.64599 24.5241 9.69849 24.5701 9.76412 24.5898C9.82318 24.616 9.96755 24.7013 10.0726 24.7801C10.1972 24.8785 10.3876 24.9376 10.5844 24.9507C10.7551 24.9638 10.8929 24.9966 10.8929 25.0229C10.8929 25.0557 10.9191 25.0623 10.9454 25.0426C11.0438 24.9835 10.9979 25.292 10.8994 25.3707C10.8469 25.4101 10.8272 25.4757 10.8469 25.5085C10.8732 25.5479 10.8404 25.6004 10.7747 25.6266C10.7026 25.6529 10.6172 25.6135 10.5319 25.5151C10.4597 25.4298 10.2694 25.2591 10.1054 25.1345C9.9413 25.0098 9.79037 24.8785 9.77068 24.8457C9.74443 24.8129 9.6788 24.8063 9.61974 24.826C9.50162 24.872 9.47537 25.1016 9.58037 25.1673C9.61974 25.1935 9.6263 25.2395 9.60662 25.2788C9.58037 25.3248 9.54099 25.3116 9.50162 25.2395C9.4688 25.1804 9.39662 25.1345 9.35068 25.1345C9.29818 25.1345 9.25224 25.1082 9.25224 25.0688C9.25224 25.036 9.23255 25.0098 9.2063 25.0163C9.17349 25.0229 9.01599 24.931 8.84537 24.8129C8.6813 24.6882 8.5238 24.6029 8.51068 24.616C8.49099 24.6291 8.39912 24.5373 8.3138 24.4126C8.22849 24.2879 8.12349 24.1895 8.08412 24.196C8.04474 24.2091 7.99224 24.1501 7.97255 24.0779C7.9463 24.0057 7.88724 23.9598 7.8413 23.9729C7.6313 24.0582 7.61162 23.8745 7.61162 21.6104V19.3595L11.4376 19.3398C13.5376 19.3332 15.2766 19.3201 15.3094 19.307C15.3357 19.3004 15.3554 19.3201 15.3554 19.3595ZM17.7507 19.5957C17.8032 19.576 17.8491 19.5957 17.8491 19.6285C17.8491 19.6745 17.9213 19.6876 18.0132 19.6745C18.1051 19.6548 18.1969 19.6679 18.2166 19.7007C18.2363 19.7335 18.2954 19.7466 18.3479 19.727C18.4004 19.7073 18.4397 19.7204 18.4397 19.7532C18.4397 19.7926 18.4922 19.8188 18.5579 19.8188C18.6235 19.8188 18.7351 19.8648 18.8072 19.9173C18.886 19.9698 18.9647 19.996 18.9779 19.9829C18.9976 19.9632 19.1222 19.996 19.2666 20.0551C19.6472 20.2126 19.7785 20.2651 19.8441 20.2651C19.8769 20.2651 19.9229 20.2913 19.9426 20.3241C20.0082 20.416 20.4872 20.6785 20.5266 20.6391C20.5463 20.626 20.6054 20.6654 20.6513 20.7376C20.7038 20.8098 20.776 20.8557 20.8088 20.836C20.8416 20.8098 20.8679 20.8426 20.8679 20.8951C20.8679 20.987 20.9007 21.0066 21.0385 20.9935C21.0582 20.9935 21.1369 21.0723 21.2091 21.1641C21.2813 21.256 21.3601 21.3216 21.3732 21.302C21.3929 21.2823 21.5569 21.4463 21.7341 21.6629C21.9113 21.8729 22.0885 22.0501 22.1213 22.0501C22.1607 22.0501 22.1738 22.0763 22.1476 22.1091C22.1279 22.142 22.1804 22.2207 22.2591 22.2732C22.3379 22.3323 22.3838 22.3782 22.3641 22.3782C22.3379 22.3782 22.4101 22.5488 22.5151 22.7523C22.7447 23.1854 22.9219 23.6513 23.0335 24.0845C23.0729 24.2485 23.1254 24.4257 23.1451 24.4782C23.2435 24.7407 23.3091 27.182 23.2172 27.1295C23.1713 27.0966 23.1451 27.3395 23.1385 27.8054C23.1385 27.8841 23.1122 27.9301 23.0794 27.9104C23.0466 27.8907 23.0335 27.9301 23.0401 27.9957C23.0532 28.0679 23.0138 28.2254 22.9547 28.3501C22.8563 28.5732 22.6791 29.1507 22.6988 29.1901C22.7054 29.1966 22.666 29.2557 22.6069 29.3082C22.5544 29.3673 22.5216 29.4395 22.5413 29.4723C22.5676 29.5051 22.5544 29.5313 22.5282 29.5313C22.4757 29.5313 22.2263 29.8988 22.246 29.9382C22.2722 29.9973 21.4257 30.7979 21.0647 31.0538C20.4676 31.4738 19.4176 31.9988 19.3322 31.9135C19.3191 31.8938 19.2338 31.9266 19.1485 31.9857C19.0697 32.0448 18.9451 32.0907 18.8794 32.0907C18.8138 32.0907 18.6957 32.1235 18.6169 32.1695C18.466 32.2482 18.1051 32.281 18.151 32.2154C18.1641 32.1957 18.1182 32.117 18.046 32.0448C17.9804 31.966 17.941 31.8938 17.9607 31.8676C17.9804 31.8479 17.9476 31.8151 17.8885 31.7888C17.8294 31.7691 17.8032 31.7232 17.8229 31.6904C17.8426 31.6576 17.8294 31.6313 17.7966 31.6313C17.7638 31.6313 17.7376 31.592 17.7376 31.546C17.7376 31.4148 17.5013 30.9095 17.4357 30.9095C17.4094 30.9095 17.4029 30.8766 17.4226 30.8438C17.4422 30.8045 17.4291 30.7782 17.3897 30.7782C17.3504 30.7782 17.3372 30.7454 17.3569 30.7126C17.3766 30.6732 17.3701 30.647 17.3372 30.647C17.2979 30.647 17.2847 30.5879 17.3044 30.5157C17.3241 30.437 17.3044 30.3845 17.2519 30.3845C17.206 30.3845 17.1863 30.3713 17.206 30.3451C17.2257 30.3254 17.1732 30.1023 17.0879 29.8529C17.0026 29.597 16.9304 29.3345 16.9304 29.2623C16.9304 29.1966 16.9041 29.1376 16.8713 29.1376C16.8385 29.1376 16.8188 29.0982 16.8188 29.0523C16.8319 28.9145 16.7204 28.4157 16.681 28.4157C16.6547 28.4157 16.6285 28.3501 16.6285 28.2648C16.6088 27.917 16.5301 27.1688 16.471 26.7751C16.3463 25.8957 16.3266 25.5348 16.3397 24.5438C16.3529 23.986 16.3594 23.2773 16.366 22.9688C16.366 22.6604 16.3988 22.3913 16.4382 22.3651C16.471 22.3388 16.4972 22.1157 16.5038 21.8663C16.5038 21.6104 16.5301 21.4201 16.5563 21.4398C16.5891 21.4595 16.6088 21.3873 16.5957 21.2888C16.5891 21.1838 16.5957 21.0395 16.6219 20.9673C16.6482 20.8951 16.6744 20.731 16.6941 20.6063C16.7072 20.4816 16.7729 20.252 16.8319 20.0945C16.8976 19.9435 16.9304 19.7598 16.9107 19.6876C16.8844 19.5826 16.9172 19.5629 17.1863 19.5432C17.3504 19.5301 17.5276 19.5498 17.5669 19.5826C17.6129 19.6088 17.6982 19.622 17.7507 19.5957ZM8.06443 24.5832C8.09724 24.557 8.14318 24.5963 8.16943 24.6685C8.22193 24.8326 8.91099 25.4823 8.98318 25.4363C9.01599 25.4166 9.06193 25.4429 9.08162 25.502C9.1013 25.561 9.1538 25.5938 9.19318 25.5807C9.26537 25.5545 9.97412 26.2173 9.97412 26.3157C9.97412 26.3551 10.0201 26.3813 10.0791 26.3813C10.1316 26.3813 10.1644 26.4076 10.1382 26.4404C10.1185 26.4798 10.2038 26.5848 10.3351 26.6898C10.4991 26.821 10.5647 26.926 10.5647 27.0507C10.5647 27.1557 10.5844 27.2345 10.6172 27.2345C10.6435 27.2345 10.6501 27.392 10.6435 27.5888C10.6304 27.7791 10.6435 28.0416 10.6829 28.1598C10.7157 28.2845 10.7157 28.4682 10.6894 28.5732C10.6566 28.6848 10.6697 28.8029 10.7157 28.8816C10.7682 28.967 10.7747 29.0195 10.7157 29.0785C10.6435 29.1507 10.6763 29.4001 10.7551 29.4001C10.7813 29.4001 10.8076 29.446 10.8076 29.4985C10.8076 29.551 10.7879 29.597 10.7616 29.597C10.7354 29.597 10.7157 29.8004 10.7222 30.0498C10.7288 30.3123 10.7026 30.4895 10.6697 30.4632C10.6304 30.4435 10.6304 30.4829 10.6632 30.5551C10.696 30.6207 10.7091 30.7913 10.7026 30.9291C10.696 31.0604 10.7288 31.2376 10.7747 31.3229C10.8207 31.4016 10.8601 31.7166 10.8666 32.0251L10.8732 32.5829L9.22599 32.5632L7.5788 32.5435V28.4485V24.3535L7.7888 24.4848C7.90693 24.557 8.03162 24.6029 8.06443 24.5832ZM11.6738 27.5101C11.7854 27.5166 11.9297 27.5757 11.9888 27.6413C12.0872 27.7529 12.0872 27.7791 11.9691 28.0351C11.9035 28.186 11.8444 28.3304 11.8444 28.3501C11.8444 28.3698 11.8182 28.4223 11.7919 28.4616C11.7591 28.5076 11.7591 28.5732 11.7788 28.6126C11.7985 28.6454 11.7854 28.6782 11.7526 28.6782C11.7066 28.6782 11.6804 28.8291 11.6804 29.0391C11.6804 29.236 11.7066 29.4001 11.7394 29.4001C11.851 29.4001 11.7001 29.8988 11.5294 30.0695C11.4376 30.1613 11.3457 30.2204 11.326 30.2007C11.3063 30.181 11.2866 30.2007 11.2866 30.2401C11.2866 30.286 11.2276 30.3188 11.1488 30.3188C11.0438 30.3188 11.0241 30.2926 11.0569 30.1876C11.0766 30.1154 11.0701 30.0563 11.0307 30.0563C10.9913 30.0563 10.9913 29.9841 11.0307 29.8463C11.1029 29.5773 11.1029 29.5116 11.0307 29.5641C10.9979 29.5838 11.011 29.5116 11.0701 29.4001C11.1226 29.2885 11.1488 29.1573 11.1291 29.1048C11.1094 29.0523 11.1226 28.9932 11.1554 28.9735C11.2276 28.9276 11.2407 28.5929 11.1751 28.5273C11.116 28.4616 11.1554 27.707 11.2276 27.5166C11.2735 27.392 11.3063 27.3657 11.3719 27.4248C11.4179 27.4641 11.5557 27.5035 11.6738 27.5101ZM12.4547 30.5945C12.4416 30.6404 12.4744 30.6732 12.5204 30.6601C12.5729 30.6535 12.5926 30.6666 12.5729 30.6995C12.5532 30.7323 12.6713 30.8832 12.8288 31.0407C12.9929 31.1982 13.1241 31.3098 13.1241 31.2901C13.1241 31.2638 13.3013 31.4213 13.5179 31.6248C13.7344 31.8348 13.9313 31.9857 13.9576 31.966C13.9772 31.9463 13.9772 31.9595 13.9576 31.9988C13.9313 32.0382 13.9904 32.1432 14.0757 32.222C14.4104 32.537 14.3579 32.5501 12.7697 32.5501H11.2997L11.2735 32.3926C11.2538 32.3007 11.2669 32.1891 11.2932 32.1432C11.3719 32.0251 11.3654 31.4082 11.2932 31.3295C11.2276 31.2638 11.3588 31.0276 11.4638 31.0341C11.5754 31.0407 11.746 30.962 11.746 30.9029C11.746 30.8701 11.7657 30.8504 11.7985 30.857C11.8707 30.8701 12.0938 30.7651 12.2644 30.6338C12.4482 30.496 12.4744 30.4895 12.4547 30.5945Z" fill="currentColor"/>
</svg>
