<svg width="30" height="18" viewBox="0 0 30 18" fill="none" xmlns="http://www.w3.org/2000/svg">
<path d="M27.2103 5.77472C27.0474 5.2557 26.8283 4.79087 26.5529 4.38023C26.2832 3.96388 25.9602 3.61027 25.5837 3.31939C25.2072 3.02281 24.7774 2.79753 24.2942 2.64354C23.8166 2.48954 23.2912 2.41255 22.7181 2.41255C21.7461 2.41255 20.8696 2.66635 20.0885 3.17395C19.3075 3.68156 18.6895 4.42586 18.2344 5.40684C17.7848 6.38213 17.5601 7.577 17.5601 8.99144C17.5601 10.4116 17.7877 11.6122 18.2428 12.5932C18.6979 13.5741 19.3216 14.3184 20.1138 14.826C20.9061 15.3337 21.8079 15.5875 22.8193 15.5875C23.7576 15.5875 24.5751 15.3935 25.2719 15.0057C25.9742 14.6179 26.5164 14.0703 26.8985 13.3631C27.2862 12.6502 27.48 11.8118 27.48 10.8479L28.1543 10.9762H23.2154V8.79468H30V10.788C30 12.2595 29.691 13.5371 29.073 14.6207C28.4605 15.6987 27.6121 16.5314 26.5276 17.1188C25.4488 17.7063 24.2127 18 22.8193 18C21.2572 18 19.8863 17.635 18.7063 16.9049C17.532 16.1749 16.6161 15.1397 15.9587 13.7994C15.3014 12.4534 14.9727 10.8565 14.9727 9.00856C14.9727 7.61122 15.1637 6.35646 15.5458 5.2443C15.9278 4.13213 16.4644 3.18821 17.1555 2.41255C17.8523 1.63118 18.6698 1.03517 19.6081 0.624525C20.5521 0.208175 21.5831 0 22.7013 0C23.634 0 24.5021 0.139734 25.3056 0.419201C26.1147 0.698669 26.8339 1.09506 27.4632 1.60837C28.0981 2.12167 28.6235 2.73194 29.0392 3.43916C29.455 4.14069 29.736 4.9192 29.8821 5.77472H27.2103Z" fill="#FFF8F3"/>
<path d="M0 17.7602V0.239258H6.32111C7.546 0.239258 8.56019 0.444581 9.36367 0.855228C10.1672 1.26017 10.7684 1.81055 11.1673 2.50637C11.5662 3.19648 11.7657 3.975 11.7657 4.84192C11.7657 5.57196 11.6337 6.18793 11.3696 6.68983C11.1055 7.18603 10.7515 7.58527 10.3076 7.88755C9.86936 8.18412 9.38615 8.40086 8.85799 8.53774V8.70884C9.4311 8.73736 9.99017 8.92557 10.5352 9.27348C11.0858 9.61568 11.5409 10.1033 11.9005 10.7364C12.2601 11.3695 12.4399 12.1394 12.4399 13.0463C12.4399 13.9417 12.2321 14.7459 11.8163 15.4588C11.4061 16.1661 10.7712 16.7279 9.9115 17.1442C9.05183 17.5548 7.95336 17.7602 6.6161 17.7602H0ZM2.6043 15.4931H6.36325C7.61062 15.4931 8.504 15.2478 9.0434 14.7573C9.58281 14.2668 9.85251 13.6537 9.85251 12.918C9.85251 12.3647 9.71485 11.8571 9.43953 11.3952C9.16421 10.9332 8.77089 10.5653 8.25959 10.2915C7.7539 10.0178 7.15269 9.88089 6.45596 9.88089H2.6043V15.4931ZM2.6043 7.81911H6.09355C6.6779 7.81911 7.20326 7.70504 7.66962 7.4769C8.14159 7.24876 8.51524 6.92937 8.79056 6.51873C9.0715 6.10238 9.21197 5.61188 9.21197 5.04724C9.21197 4.32291 8.96193 3.71549 8.46186 3.225C7.96179 2.7345 7.19483 2.48926 6.16098 2.48926H2.6043V7.81911Z" fill="#FFF8F3"/>
</svg>
