<svg width="240" height="18" viewBox="0 0 240 18" fill="none" xmlns="http://www.w3.org/2000/svg">
<path d="M227.309 17.7352V0.239258H233.85C235.19 0.239258 236.314 0.489851 237.223 0.991037C238.137 1.49222 238.827 2.18135 239.292 3.05843C239.764 3.92981 239.999 4.92079 239.999 6.03138C239.999 7.15335 239.764 8.15003 239.292 9.02141C238.821 9.89279 238.126 10.5791 237.206 11.0803C236.286 11.5758 235.153 11.8235 233.807 11.8235H229.472V9.2179H233.381C234.165 9.2179 234.807 9.08121 235.306 8.80783C235.806 8.53446 236.175 8.15857 236.414 7.68017C236.658 7.20176 236.78 6.65216 236.78 6.03138C236.78 5.41059 236.658 4.86384 236.414 4.39113C236.175 3.91842 235.803 3.55107 235.298 3.28909C234.798 3.02141 234.154 2.88757 233.364 2.88757H230.469V17.7352H227.309Z" fill="#FFF8F3"/>
<path d="M220.235 0.239258H223.395V11.6697C223.395 12.9227 223.1 14.0247 222.509 14.9758C221.924 15.927 221.101 16.6702 220.039 17.2055C218.977 17.7352 217.737 18 216.317 18C214.892 18 213.648 17.7352 212.587 17.2055C211.525 16.6702 210.701 15.927 210.117 14.9758C209.532 14.0247 209.239 12.9227 209.239 11.6697V0.239258H212.399V11.4049C212.399 12.1339 212.558 12.7832 212.876 13.3527C213.2 13.9222 213.654 14.3693 214.239 14.6939C214.824 15.0129 215.516 15.1723 216.317 15.1723C217.118 15.1723 217.81 15.0129 218.395 14.6939C218.986 14.3693 219.44 13.9222 219.758 13.3527C220.076 12.7832 220.235 12.1339 220.235 11.4049V0.239258Z" fill="#FFF8F3"/>
<path d="M205.772 8.98718C205.772 10.8723 205.42 12.4869 204.716 13.831C204.017 15.1694 203.063 16.1946 201.854 16.9065C200.65 17.6184 199.284 17.9744 197.757 17.9744C196.23 17.9744 194.861 17.6184 193.652 16.9065C192.448 16.1889 191.494 15.1609 190.79 13.8225C190.091 12.4784 189.742 10.8666 189.742 8.98718C189.742 7.10204 190.091 5.49027 190.79 4.15187C191.494 2.80778 192.448 1.77978 193.652 1.06787C194.861 0.355956 196.23 0 197.757 0C199.284 0 200.65 0.355956 201.854 1.06787C203.063 1.77978 204.017 2.80778 204.716 4.15187C205.42 5.49027 205.772 7.10204 205.772 8.98718ZM202.595 8.98718C202.595 7.66018 202.388 6.54105 201.973 5.6298C201.564 4.71286 200.996 4.02088 200.27 3.55387C199.543 3.08116 198.705 2.8448 197.757 2.8448C196.809 2.8448 195.971 3.08116 195.244 3.55387C194.518 4.02088 193.947 4.71286 193.532 5.6298C193.124 6.54105 192.919 7.66018 192.919 8.98718C192.919 10.3142 193.124 11.4362 193.532 12.3531C193.947 13.2643 194.518 13.9563 195.244 14.429C195.971 14.8961 196.809 15.1296 197.757 15.1296C198.705 15.1296 199.543 14.8961 200.27 14.429C200.996 13.9563 201.564 13.2643 201.973 12.3531C202.388 11.4362 202.595 10.3142 202.595 8.98718Z" fill="#FFF8F3"/>
<path d="M174.106 17.7352V0.239258H180.648C181.988 0.239258 183.112 0.472765 184.021 0.939779C184.935 1.40679 185.625 2.06175 186.09 2.90466C186.562 3.74187 186.797 4.71861 186.797 5.83489C186.797 6.95686 186.559 7.93076 186.082 8.75658C185.61 9.5767 184.915 10.2117 183.995 10.6617C183.075 11.1059 181.945 11.328 180.605 11.328H175.946V8.69678H180.179C180.963 8.69678 181.604 8.58856 182.104 8.37214C182.604 8.15003 182.973 7.82824 183.211 7.40679C183.456 6.97964 183.578 6.45568 183.578 5.83489C183.578 5.2141 183.456 4.68444 183.211 4.2459C182.967 3.80167 182.595 3.46564 182.096 3.23783C181.596 3.00433 180.952 2.88757 180.162 2.88757H177.266V17.7352H174.106ZM183.118 9.80736L187.436 17.7352H183.91L179.668 9.80736H183.118Z" fill="#FFF8F3"/>
<path d="M167.207 5.82629C167.065 5.36497 166.869 4.95206 166.619 4.58756C166.375 4.21737 166.08 3.90128 165.733 3.6393C165.393 3.37731 165.001 3.18082 164.558 3.04983C164.115 2.91315 163.632 2.8448 163.11 2.8448C162.173 2.8448 161.338 3.08116 160.606 3.55387C159.873 4.02658 159.297 4.7214 158.877 5.63835C158.462 6.54959 158.255 7.66018 158.255 8.97009C158.255 10.2914 158.462 11.4105 158.877 12.3275C159.291 13.2444 159.868 13.9421 160.606 14.4205C161.344 14.8932 162.201 15.1296 163.178 15.1296C164.064 15.1296 164.83 14.9587 165.478 14.617C166.131 14.2753 166.633 13.7912 166.985 13.1647C167.337 12.5325 167.513 11.7921 167.513 10.9435L168.229 11.0546H163.493V8.57712H170.571V10.6787C170.571 12.1765 170.253 13.4722 169.617 14.5657C168.981 15.6592 168.107 16.5021 166.994 17.0944C165.881 17.6811 164.603 17.9744 163.161 17.9744C161.554 17.9744 160.143 17.6127 158.928 16.8894C157.718 16.1604 156.773 15.1267 156.092 13.7883C155.416 12.4442 155.078 10.8495 155.078 9.00426C155.078 7.59183 155.277 6.33032 155.674 5.21974C156.077 4.10916 156.64 3.16659 157.361 2.39202C158.082 1.61177 158.928 1.01946 159.899 0.615092C160.87 0.205031 161.926 0 163.067 0C164.033 0 164.933 0.142382 165.767 0.427147C166.602 0.706217 167.343 1.10489 167.99 1.62316C168.643 2.14143 169.18 2.75652 169.6 3.46844C170.02 4.18035 170.296 4.9663 170.426 5.82629H167.207Z" fill="#FFF8F3"/>
<path d="M134.043 17.7352V0.239258H145.388V2.89612H137.203V7.64599H144.8V10.3028H137.203V15.0784H145.456V17.7352H134.043Z" fill="#FFF8F3"/>
<path d="M127.144 5.82629C127.002 5.36497 126.806 4.95206 126.557 4.58756C126.312 4.21737 126.017 3.90128 125.671 3.6393C125.33 3.37731 124.938 3.18082 124.495 3.04983C124.052 2.91315 123.57 2.8448 123.047 2.8448C122.111 2.8448 121.276 3.08116 120.543 3.55387C119.811 4.02658 119.235 4.7214 118.814 5.63835C118.4 6.54959 118.193 7.66018 118.193 8.97009C118.193 10.2914 118.4 11.4105 118.814 12.3275C119.229 13.2444 119.805 13.9421 120.543 14.4205C121.282 14.8932 122.139 15.1296 123.116 15.1296C124.001 15.1296 124.768 14.9587 125.415 14.617C126.068 14.2753 126.571 13.7912 126.923 13.1647C127.275 12.5325 127.451 11.7921 127.451 10.9435L128.166 11.0546H123.431V8.57712H130.509V10.6787C130.509 12.1765 130.191 13.4722 129.555 14.5657C128.919 15.6592 128.044 16.5021 126.931 17.0944C125.818 17.6811 124.541 17.9744 123.099 17.9744C121.492 17.9744 120.081 17.6127 118.865 16.8894C117.656 16.1604 116.711 15.1267 116.029 13.7883C115.353 12.4442 115.016 10.8495 115.016 9.00426C115.016 7.59183 115.214 6.33032 115.612 5.21974C116.015 4.10916 116.577 3.16659 117.298 2.39202C118.019 1.61177 118.865 1.01946 119.836 0.615092C120.807 0.205031 121.864 0 123.005 0C123.97 0 124.87 0.142382 125.705 0.427147C126.54 0.706217 127.281 1.10489 127.928 1.62316C128.581 2.14143 129.117 2.75652 129.538 3.46844C129.958 4.18035 130.233 4.9663 130.364 5.82629H127.144Z" fill="#FFF8F3"/>
<path d="M100.682 17.7352H97.3096L103.451 0.239258H107.351L113.501 17.7352H110.128L105.469 3.8273H105.333L100.682 17.7352ZM100.793 10.8752H109.992V13.421H100.793V10.8752Z" fill="#FFF8F3"/>
<path d="M83.4707 2.89612V0.239258H97.3879V2.89612H91.9965V17.7352H88.8621V2.89612H83.4707Z" fill="#FFF8F3"/>
<path d="M77.6608 5.04888C77.5813 4.3028 77.2463 3.72188 76.6558 3.30612C76.0709 2.89036 75.31 2.68249 74.3731 2.68249C73.7145 2.68249 73.1495 2.78215 72.6782 2.98149C72.2069 3.18082 71.8463 3.45135 71.5965 3.79307C71.3466 4.13479 71.2189 4.52491 71.2132 4.96345C71.2132 5.32795 71.2955 5.64404 71.4602 5.91172C71.6306 6.1794 71.8605 6.40721 72.1501 6.59516C72.4397 6.7774 72.7605 6.93118 73.1126 7.05647C73.4646 7.18177 73.8195 7.28713 74.1772 7.37256L75.8125 7.78262C76.4712 7.9364 77.1043 8.14428 77.7119 8.40626C78.3251 8.66824 78.8731 8.99857 79.3557 9.39724C79.8441 9.79591 80.2302 10.2772 80.5141 10.841C80.798 11.4048 80.9399 12.0655 80.9399 12.823C80.9399 13.8481 80.6787 14.7508 80.1564 15.5311C79.634 16.3056 78.8788 16.9122 77.8908 17.3507C76.9084 17.7836 75.7189 18 74.322 18C72.9649 18 71.7867 17.7893 70.7873 17.3678C69.7937 16.9464 69.0157 16.3313 68.4536 15.5225C67.8971 14.7138 67.5962 13.7285 67.5508 12.5667H70.6596C70.705 13.1761 70.8924 13.683 71.2217 14.0873C71.5511 14.4917 71.9798 14.7935 72.5078 14.9929C73.0416 15.1922 73.6378 15.2919 74.2965 15.2919C74.9835 15.2919 75.5854 15.1894 76.1021 14.9843C76.6245 14.7736 77.0334 14.4831 77.3286 14.1129C77.6239 13.7371 77.7744 13.2985 77.78 12.7973C77.7744 12.3417 77.6409 11.9658 77.3797 11.6697C77.1185 11.3678 76.7523 11.1172 76.281 10.9179C75.8154 10.7129 75.2703 10.5306 74.6457 10.3711L72.6611 9.85856C71.2246 9.48837 70.0889 8.92738 69.2542 8.1756C68.4252 7.41813 68.0107 6.4129 68.0107 5.15994C68.0107 4.12909 68.2889 3.22639 68.8454 2.45183C69.4075 1.67727 70.1713 1.07641 71.1366 0.649264C72.1018 0.216421 73.1949 0 74.4157 0C75.6536 0 76.7381 0.216421 77.6693 0.649264C78.6062 1.07641 79.3415 1.67157 79.8753 2.43474C80.409 3.19221 80.6844 4.0636 80.7015 5.04888H77.6608Z" fill="#FFF8F3"/>
<path d="M51.5625 17.7352V0.239258H54.7224V8.27817H54.9353L61.7407 0.239258H65.599L58.8533 8.09023L65.6586 17.7352H61.8599L56.6558 10.2345L54.7224 12.524V17.7352H51.5625Z" fill="#FFF8F3"/>
<path d="M48.1901 6.14238H45.0046C44.9138 5.61841 44.7463 5.15424 44.5021 4.74988C44.258 4.33982 43.9542 3.9924 43.5908 3.70764C43.2274 3.42287 42.8129 3.2093 42.3472 3.06692C41.8873 2.91884 41.3905 2.8448 40.8567 2.8448C39.9085 2.8448 39.0681 3.084 38.3356 3.56241C37.6031 4.03512 37.0296 4.72994 36.6151 5.64689C36.2006 6.55814 35.9934 7.67157 35.9934 8.98718C35.9934 10.3256 36.2006 11.4532 36.6151 12.3702C37.0353 13.2814 37.6088 13.9706 38.3356 14.4376C39.0681 14.8989 39.9056 15.1296 40.8482 15.1296C41.3706 15.1296 41.8589 15.0612 42.3132 14.9245C42.7731 14.7821 43.1848 14.5743 43.5482 14.3009C43.9173 14.0275 44.2267 13.6915 44.4766 13.2928C44.7321 12.8942 44.9081 12.4385 45.0046 11.926L48.1901 11.943C48.0709 12.7746 47.8125 13.5548 47.415 14.2838C47.0232 15.0128 46.5094 15.6564 45.8734 16.2145C45.2374 16.767 44.4936 17.1998 43.6419 17.513C42.7901 17.8206 41.8447 17.9744 40.8056 17.9744C39.2725 17.9744 37.9041 17.6184 36.7003 16.9065C35.4965 16.1946 34.5483 15.1666 33.8555 13.8225C33.1628 12.4784 32.8164 10.8666 32.8164 8.98718C32.8164 7.10204 33.1656 5.49027 33.864 4.15187C34.5625 2.80778 35.5135 1.77978 36.7173 1.06787C37.9211 0.355956 39.2839 0 40.8056 0C41.7766 0 42.6794 0.136687 43.5141 0.410061C44.3488 0.683436 45.0926 1.08495 45.7456 1.61462C46.3986 2.13858 46.9352 2.78215 47.3554 3.54532C47.7813 4.3028 48.0595 5.16848 48.1901 6.14238Z" fill="#FFF8F3"/>
<path d="M18.4832 17.7352H15.1104L21.2513 0.239258H25.1522L31.3017 17.7352H27.9289L23.2699 3.8273H23.1336L18.4832 17.7352ZM18.5939 10.8752H27.7926V13.421H18.5939V10.8752Z" fill="#FFF8F3"/>
<path d="M0 17.7352V0.239258H6.67755C7.93811 0.239258 8.98573 0.438593 9.82043 0.837264C10.6608 1.23024 11.2882 1.76845 11.7027 2.45188C12.1229 3.13532 12.333 3.90988 12.333 4.77556C12.333 5.48748 12.1967 6.09687 11.9242 6.60375C11.6516 7.10494 11.2854 7.51215 10.8255 7.8254C10.3655 8.13864 9.85166 8.3636 9.28384 8.50029V8.67115C9.90276 8.70532 10.4961 8.89611 11.0639 9.24352C11.6374 9.58524 12.1059 10.0693 12.4693 10.6958C12.8327 11.3223 13.0144 12.0798 13.0144 12.9683C13.0144 13.8738 12.7958 14.6882 12.3586 15.4115C11.9214 16.1291 11.2627 16.6958 10.3826 17.1116C9.50245 17.5273 8.3952 17.7352 7.06083 17.7352H0ZM3.15991 15.0869H6.55831C7.7053 15.0869 8.53148 14.8676 9.03684 14.4291C9.54787 13.9849 9.80339 13.4153 9.80339 12.7205C9.80339 12.2022 9.67563 11.7352 9.42011 11.3195C9.16459 10.898 8.80119 10.5677 8.3299 10.3285C7.85861 10.0836 7.29647 9.96113 6.64348 9.96113H3.15991V15.0869ZM3.15991 7.68017H6.28575C6.83086 7.68017 7.32202 7.5805 7.75924 7.38116C8.19646 7.17613 8.53999 6.88852 8.78983 6.51832C9.04535 6.14244 9.17311 5.6982 9.17311 5.18563C9.17311 4.50788 8.93463 3.94974 8.45766 3.51121C7.98637 3.07267 7.28511 2.8534 6.35389 2.8534H3.15991V7.68017Z" fill="#FFF8F3"/>
</svg>
