<svg width="24" height="24" viewBox="0 0 24 24" fill="none" xmlns="http://www.w3.org/2000/svg">
<path d="M12 21L5.64844 15.9643H1V8.0357H5.64844L12 3V21ZM6.625 9.80105L6.35059 10.0179H3V13.9821H6.35059L6.625 14.1989L10 16.8741V7.12496L6.625 9.80105Z" fill="currentColor" fill-opacity="0.98"/>
<path d="M21.0404 12.0005C21.0404 9.54567 20.1119 7.19079 18.4589 5.45464L19.8444 4C21.8649 6.12199 23 9.00002 23 12.0005C22.9999 15.0008 21.8647 17.8781 19.8444 20L18.4589 18.5454C20.1117 16.8093 21.0403 14.4551 21.0404 12.0005ZM16.1472 11.9955C16.1472 10.9045 15.7346 9.85782 15 9.08621L16.3855 7.63157C17.4876 8.78902 18.1068 10.3589 18.1068 11.9955C18.1067 13.6319 17.4874 15.201 16.3855 16.3584L15 14.9037C15.7344 14.1322 16.1471 13.0863 16.1472 11.9955Z" fill="currentColor" fill-opacity="0.98"/>
</svg>
